<svg xmlns="http://www.w3.org/2000/svg" xmlns:xlink="http://www.w3.org/1999/xlink" width="500" zoomAndPan="magnify" viewBox="0 0 375 374.999991" height="500" preserveAspectRatio="xMidYMid meet" version="1.0"><defs><filter x="0%" y="0%" width="100%" height="100%" id="id1"><feColorMatrix values="0 0 0 0 1 0 0 0 0 1 0 0 0 0 1 0 0 0 1 0" color-interpolation-filters="sRGB"/></filter><clipPath id="id2"><path d="M 53.25 104.207031 L 187.546875 104.207031 L 187.546875 337.5 L 53.25 337.5 Z M 53.25 104.207031 " clip-rule="nonzero"/></clipPath><clipPath id="id3"><path d="M 187.085938 104.207031 L 321.75 104.207031 L 321.75 337.5 L 187.085938 337.5 Z M 187.085938 104.207031 " clip-rule="nonzero"/></clipPath><clipPath id="id4"><path d="M 53.25 37.519531 L 321.75 37.519531 L 321.75 171.816406 L 53.25 171.816406 Z M 53.25 37.519531 " clip-rule="nonzero"/></clipPath><mask id="id5"><g filter="url(#id1)"><rect x="-37.5" width="450" fill="#000000" y="-37.499999" height="449.999989" fill-opacity="0.2588"/></g></mask><clipPath id="id6"><path d="M 69.230469 9.796875 L 148.710938 9.796875 L 148.710938 126.785156 L 69.230469 126.785156 Z M 69.230469 9.796875 " clip-rule="nonzero"/></clipPath><clipPath id="id7"><path d="M 81.511719 16.597656 L 150.71875 16.597656 L 150.71875 125.6875 L 81.511719 125.6875 Z M 81.511719 16.597656 " clip-rule="nonzero"/></clipPath><clipPath id="id8"><path d="M 150.222656 41.539062 L 150.71875 41.539062 L 150.71875 41.792969 L 150.222656 41.792969 Z M 150.222656 41.539062 " clip-rule="nonzero"/></clipPath><clipPath id="id9"><rect x="0" width="151" y="0" height="128"/></clipPath></defs><g clip-path="url(#id2)"><path fill="#000000" d="M 187.511719 337.503906 L 53.25 270.359375 L 53.25 104.664062 L 187.511719 171.808594 L 187.511719 337.503906 " fill-opacity="1" fill-rule="nonzero"/></g><g clip-path="url(#id3)"><path fill="#333333" d="M 321.769531 270.359375 L 187.511719 337.503906 L 187.511719 171.808594 L 321.769531 104.664062 L 321.769531 270.359375 " fill-opacity="1" fill-rule="nonzero"/></g><g clip-path="url(#id4)"><path fill="#666666" d="M 321.769531 104.664062 L 187.511719 171.808594 L 53.25 104.664062 L 187.511719 37.523438 L 321.769531 104.664062 " fill-opacity="1" fill-rule="nonzero"/></g><path fill="#ffffff" d="M 101.992188 262.578125 C 101.992188 259.097656 103.175781 256.820312 105.542969 255.746094 C 107.914062 254.675781 110.953125 255.066406 114.652344 256.914062 C 118.34375 258.761719 121.378906 261.410156 123.75 264.851562 C 126.121094 268.296875 127.304688 271.757812 127.304688 275.234375 C 127.304688 278.664062 126.144531 280.914062 123.828125 281.984375 C 121.507812 283.058594 118.445312 282.644531 114.652344 280.746094 C 110.84375 278.839844 107.785156 276.195312 105.46875 272.804688 C 103.152344 269.414062 101.992188 266.003906 101.992188 262.578125 Z M 104.257812 239.761719 C 104.257812 232.460938 105.140625 227.089844 106.914062 223.648438 C 108.683594 220.207031 111.929688 217.5625 116.644531 215.722656 C 121.351562 213.882812 124.492188 212.035156 126.058594 210.1875 C 127.617188 208.328125 128.402344 205.945312 128.402344 203.019531 C 128.402344 194.203125 124.335938 187.757812 116.210938 183.699219 C 112.355469 181.769531 109.269531 181.414062 106.953125 182.628906 C 104.632812 183.847656 103.421875 186.515625 103.316406 190.640625 L 80.660156 179.308594 C 80.765625 169.402344 83.980469 163.214844 90.3125 160.75 C 96.640625 158.285156 105.269531 159.785156 116.210938 165.257812 C 127.253906 170.777344 135.824219 177.738281 141.917969 186.128906 C 148.011719 194.523438 151.058594 203.59375 151.058594 213.34375 C 151.058594 217.777344 150.066406 221.464844 148.089844 224.414062 C 146.109375 227.355469 142.644531 229.992188 137.699219 232.316406 L 131.371094 235.175781 C 127.410156 237 125.144531 240.324219 124.570312 245.148438 L 124.261719 249.765625 L 104.257812 239.761719 " fill-opacity="1" fill-rule="nonzero"/><path fill="#ffffff" d="M 240.769531 276.113281 C 240.769531 272.636719 241.953125 269.175781 244.324219 265.730469 C 246.695312 262.289062 249.730469 259.640625 253.429688 257.792969 C 257.121094 255.945312 260.160156 255.554688 262.53125 256.625 C 264.898438 257.699219 266.085938 259.976562 266.085938 263.453125 C 266.085938 266.882812 264.925781 270.292969 262.609375 273.679688 C 260.289062 277.078125 257.226562 279.722656 253.429688 281.621094 C 249.625 283.527344 246.566406 283.941406 244.246094 282.867188 C 241.929688 281.792969 240.769531 279.542969 240.769531 276.113281 Z M 243.035156 251.035156 C 243.035156 243.734375 243.921875 237.476562 245.691406 232.261719 C 247.464844 227.050781 250.707031 221.164062 255.421875 214.609375 C 260.132812 208.058594 263.269531 203.070312 264.835938 199.652344 C 266.398438 196.238281 267.179688 193.066406 267.179688 190.144531 C 267.179688 181.328125 263.113281 178.949219 254.992188 183.011719 C 251.136719 184.941406 248.046875 187.671875 245.734375 191.207031 C 243.414062 194.742188 242.199219 198.625 242.097656 202.855469 L 219.441406 214.183594 C 219.542969 204.175781 222.761719 194.769531 229.089844 185.972656 C 235.421875 177.175781 244.050781 170.042969 254.992188 164.574219 C 266.03125 159.050781 274.601562 157.4375 280.699219 159.734375 C 286.792969 162.03125 289.839844 168.054688 289.839844 177.804688 C 289.839844 182.238281 288.847656 186.917969 286.871094 191.84375 C 284.886719 196.769531 281.425781 202.871094 276.480469 210.140625 L 270.148438 219.328125 C 266.191406 225.113281 263.921875 230.707031 263.351562 236.101562 L 263.039062 241.027344 L 243.035156 251.035156 " fill-opacity="1" fill-rule="nonzero"/><path fill="#ffffff" d="M 221.664062 129.578125 C 218.328125 127.914062 216.714844 125.972656 216.824219 123.753906 C 216.929688 121.539062 218.757812 119.542969 222.300781 117.769531 C 225.835938 116.003906 229.828125 115.089844 234.257812 115.035156 C 238.691406 114.984375 242.578125 115.789062 245.90625 117.453125 C 249.1875 119.09375 250.789062 121.007812 250.707031 123.1875 C 250.625 125.367188 248.761719 127.367188 245.125 129.1875 C 241.480469 131.011719 237.480469 131.941406 233.121094 131.980469 C 228.765625 132.019531 224.945312 131.222656 221.664062 129.578125 Z M 200.894531 117.023438 C 193.902344 113.53125 189.183594 110.316406 186.734375 107.398438 C 184.285156 104.476562 183.308594 100.878906 183.800781 96.609375 C 184.292969 92.34375 184.03125 89.207031 183.003906 87.195312 C 181.976562 85.183594 180.066406 83.476562 177.265625 82.078125 C 168.820312 77.851562 160.703125 77.691406 152.921875 81.582031 C 149.230469 83.429688 147.410156 85.472656 147.46875 87.722656 C 147.519531 89.972656 149.5 92.121094 153.402344 94.171875 L 131.699219 105.023438 C 122.261719 100.203125 117.875 94.929688 118.546875 89.199219 C 119.214844 83.472656 124.78125 77.988281 135.261719 72.746094 C 145.835938 67.457031 156.605469 64.632812 167.558594 64.273438 C 178.515625 63.914062 188.664062 66.070312 198 70.742188 C 202.246094 72.863281 205.304688 75.34375 207.179688 78.175781 C 209.054688 81.011719 209.917969 84.761719 209.773438 89.429688 L 209.480469 95.34375 C 209.335938 99.066406 211.433594 102.285156 215.78125 105.007812 L 220.054688 107.441406 L 200.894531 117.023438 " fill-opacity="1" fill-rule="nonzero"/><g mask="url(#id5)"><g transform="matrix(1, 0, 0, 1, 99, 114)"><g clip-path="url(#id9)"><g clip-path="url(#id6)"><path fill="#c7c7c7" d="M 107.050781 29.339844 C 106.394531 29.339844 105.867188 29.070312 105.347656 28.902344 C 103.828125 28.40625 102.453125 27.417969 102.1875 25.730469 C 101.9375 24.117188 102.652344 23.917969 101.757812 23.339844 C 101.511719 23.179688 101.386719 23.097656 101.164062 22.90625 C 100.25 22.128906 100.15625 21.8125 99.65625 20.738281 L 99.476562 20.488281 C 99.472656 20.460938 99.445312 20.464844 99.429688 20.449219 C 98.832031 20.5 97.300781 21.09375 96.699219 21.3125 C 96.425781 21.414062 96.15625 21.546875 95.863281 21.675781 C 95.28125 21.925781 94.589844 22.011719 93.984375 22.191406 C 93.660156 22.285156 93.398438 22.433594 93.082031 22.484375 C 92.371094 22.605469 91.511719 22.410156 90.800781 22.519531 C 90.191406 22.613281 89.351562 22.523438 88.738281 22.320312 C 88.445312 22.222656 88.15625 22.097656 87.863281 22 C 86.53125 21.558594 85.804688 21.617188 84.910156 21.355469 C 84.183594 21.148438 83.328125 21.21875 82.566406 21.21875 C 80.886719 21.21875 79.019531 22.277344 77.601562 23.101562 C 76.71875 23.613281 75.101562 24.9375 74.566406 25.199219 C 73.460938 25.738281 72.210938 25.71875 71.078125 25.167969 L 70.964844 25.109375 C 70.945312 25.101562 70.921875 25.089844 70.90625 25.082031 L 70.371094 24.675781 C 70.296875 24.597656 70.261719 24.566406 70.199219 24.503906 C 69.296875 23.566406 69.050781 21.761719 69.550781 20.535156 C 69.804688 19.910156 71.148438 17.769531 71.675781 17.355469 C 72.160156 16.976562 72.640625 16.617188 73.082031 16.195312 C 73.21875 16.0625 73.3125 16.011719 73.464844 15.894531 C 74.097656 15.414062 74.835938 15.132812 75.507812 14.691406 C 76.054688 14.335938 76.699219 14.1875 77.289062 13.898438 C 77.882812 13.605469 78.496094 13.285156 79.234375 13.191406 C 79.632812 13.140625 80.035156 13.097656 80.359375 13.035156 C 81.921875 12.722656 82.824219 12.839844 84.449219 12.839844 C 84.851562 12.839844 85.035156 12.949219 85.324219 12.992188 C 85.679688 13.050781 85.894531 13.070312 86.242188 13.101562 C 86.863281 13.15625 87.390625 13.332031 87.949219 13.445312 C 88.503906 13.558594 89.105469 13.628906 89.65625 13.796875 C 91.078125 14.226562 90.675781 14.566406 92.738281 14.023438 C 92.953125 13.964844 93.191406 13.84375 93.371094 13.800781 C 94.066406 13.625 94.597656 13.40625 95.296875 13.15625 C 96.734375 12.644531 98.097656 12.21875 99.398438 11.355469 L 102.058594 10.25 C 102.203125 10.199219 102.242188 10.203125 102.390625 10.152344 C 103.84375 9.667969 103.503906 9.921875 104.5625 9.9375 C 105.753906 9.957031 106.789062 9.910156 107.808594 10.457031 C 108.210938 10.675781 108.671875 11.027344 108.933594 11.386719 C 109.480469 12.136719 109.71875 12.742188 109.960938 13.695312 C 110.375 13.730469 110.121094 13.785156 110.492188 13.722656 C 111.101562 13.617188 111.457031 13.523438 112.101562 13.523438 C 113.464844 13.523438 114.539062 14.3125 115.246094 15.34375 L 115.492188 15.78125 C 115.601562 15.980469 115.589844 15.980469 115.667969 16.207031 C 115.777344 16.542969 115.878906 16.792969 115.953125 17.117188 L 118.691406 15.746094 C 119.589844 15.222656 120.46875 14.542969 121.757812 14.738281 C 122.144531 14.800781 122.480469 14.867188 122.855469 15.011719 C 123.679688 15.332031 124.417969 15.9375 124.816406 16.730469 C 125.113281 17.316406 125.339844 17.097656 126.007812 17.25 C 128.113281 17.722656 129.527344 19.75 128.917969 21.9375 C 128.710938 22.679688 128.289062 22.785156 129.136719 23.273438 C 129.878906 23.699219 130.457031 24.285156 130.886719 25.03125 C 131.113281 25.417969 131.21875 25.828125 131.390625 26.238281 C 131.480469 26.457031 131.570312 26.648438 131.621094 26.859375 C 132.0625 26.898438 131.996094 26.9375 132.453125 26.75 C 132.777344 26.617188 133.003906 26.617188 133.324219 26.511719 C 134.832031 26.015625 136.328125 25.796875 137.839844 26.550781 C 138.074219 26.664062 138.398438 26.796875 138.640625 26.863281 C 139.175781 27.011719 139.855469 27.125 140.355469 27.371094 C 141.640625 28.015625 142.429688 29.027344 142.921875 30.367188 C 143.023438 30.644531 143.09375 30.828125 143.09375 31.21875 C 143.09375 33.621094 142.527344 33.246094 143.488281 33.820312 L 144.363281 34.484375 C 144.820312 34.84375 145.199219 35.304688 145.554688 35.773438 C 146.746094 37.347656 146.59375 40.054688 145.339844 41.5 C 144.648438 42.296875 144.472656 42.199219 144.464844 42.675781 C 145.703125 42.703125 146.597656 43.40625 147.394531 44.191406 C 148.9375 45.714844 149.082031 48.65625 147.652344 50.304688 C 147.148438 50.886719 146.566406 51.363281 146.023438 51.929688 L 145.585938 52.429688 C 145.574219 52.445312 145.554688 52.460938 145.542969 52.472656 L 145.3125 52.671875 C 145.003906 52.929688 144.691406 53.109375 144.464844 53.445312 C 146.246094 54.636719 147.195312 56.476562 146.472656 58.613281 C 146.230469 59.324219 145.734375 60.007812 145.195312 60.503906 C 144.824219 60.839844 145.421875 61.644531 145.609375 62.558594 C 145.699219 62.992188 145.722656 63.011719 146.039062 63.242188 C 146.246094 63.398438 146.445312 63.519531 146.625 63.683594 C 146.84375 63.875 146.960938 64.0625 147.132812 64.289062 L 147.546875 64.988281 C 148.023438 66.050781 148.082031 66.96875 147.734375 68.082031 C 147.632812 68.40625 147.511719 68.734375 147.304688 69.019531 C 146.585938 70.007812 147.132812 69.820312 147.425781 71.003906 C 147.574219 71.589844 147.570312 71.859375 147.636719 72.503906 C 147.757812 73.703125 148.488281 73.453125 148.488281 76.1875 C 148.488281 77.304688 147.765625 78.390625 146.960938 79.023438 C 146.488281 79.394531 146.113281 79.550781 145.546875 79.832031 L 144.292969 80.714844 C 144.332031 81.210938 144.546875 81.660156 144.546875 82.253906 C 144.546875 84.867188 142.449219 86.148438 142.335938 86.714844 C 142.277344 87.011719 142.355469 87.460938 142.304688 87.792969 C 142.226562 88.304688 142 88.714844 142.382812 89.203125 C 142.878906 89.832031 143.328125 90.566406 143.351562 91.402344 C 143.371094 92.164062 143.414062 91.613281 143.351562 92.429688 C 143.273438 93.476562 142.792969 94.226562 142.085938 94.929688 C 141.308594 95.707031 141.609375 95.527344 141.789062 96.464844 C 142.21875 98.683594 141.371094 99.4375 140.183594 100.804688 C 140.449219 101.3125 140.769531 101.519531 141.003906 102.121094 C 141.476562 103.3125 141.476562 104.488281 140.925781 105.652344 C 140.707031 106.109375 140.277344 106.636719 139.890625 106.925781 C 139.410156 107.289062 138.949219 107.503906 138.410156 107.757812 C 137.898438 108 137.476562 108.273438 137.015625 108.585938 C 137.015625 109.339844 136.84375 109.929688 136.84375 110.636719 C 136.84375 110.878906 138.171875 112.816406 136.734375 114.71875 C 136.277344 115.324219 135.960938 115.609375 135.246094 115.964844 C 134.636719 116.265625 134.09375 116.574219 133.46875 116.839844 C 131.441406 117.703125 131.800781 117.675781 131.195312 118.671875 C 130.175781 120.347656 128.042969 120.457031 126.375 121.125 C 125.203125 121.59375 124.113281 121.871094 122.945312 122.40625 L 121.976562 122.804688 C 120.847656 123.363281 118.488281 124.351562 117.3125 124.816406 C 116.175781 125.265625 115.109375 125.765625 113.953125 126.160156 L 112.9375 126.433594 C 112.695312 126.488281 112.640625 126.523438 112.410156 126.589844 C 112.054688 126.6875 111.726562 126.792969 111.332031 126.792969 C 110.628906 126.792969 109.316406 126.578125 108.75 126.378906 C 108.484375 126.285156 108.023438 126.007812 107.839844 125.832031 C 107.125 125.148438 107.285156 124.75 106.261719 124.503906 C 105.210938 124.246094 104.140625 123.554688 104.140625 122.261719 C 104.140625 120.238281 105.476562 120.132812 106.835938 119.484375 C 108.378906 118.742188 107.660156 118.757812 108.488281 117.714844 C 108.691406 117.460938 109.105469 117.050781 109.359375 116.875 C 109.683594 116.648438 110.101562 116.464844 110.476562 116.277344 C 111.277344 115.878906 111.597656 115.867188 111.589844 114.910156 C 111.582031 114.207031 111.660156 113.664062 111.917969 113.015625 C 112.074219 112.621094 112.265625 112.417969 112.515625 112.078125 C 113.269531 111.054688 113.113281 110.664062 112.003906 110.21875 C 111.808594 110.140625 111.832031 110.15625 111.65625 110.054688 C 110.824219 109.589844 110.746094 109.867188 109.703125 109.867188 C 108.578125 109.867188 108.121094 109.367188 107.511719 109.726562 C 106.671875 110.226562 105.582031 111.320312 104.828125 111.664062 C 102.40625 112.769531 99.34375 111.367188 98.671875 109.6875 C 97.613281 107.046875 98.671875 106.226562 99.773438 104.65625 C 100.675781 103.367188 100.800781 103.460938 101.328125 102.789062 C 102.855469 100.84375 102.617188 101.792969 101.855469 100.179688 C 100.878906 98.109375 102 96.894531 102 96.359375 C 102 95.988281 101.546875 95.375 101.398438 95.078125 L 100.957031 94.152344 C 100.398438 92.917969 100.136719 92.601562 99.894531 91.195312 C 99.597656 89.476562 100.164062 88.753906 99.292969 88.121094 C 98.753906 87.722656 97.972656 86.730469 97.804688 86.015625 C 97.105469 86.015625 95.1875 87.074219 94.347656 87.355469 C 94.011719 87.464844 93.765625 87.515625 93.402344 87.605469 C 92.191406 87.90625 91.328125 88.421875 89.957031 88.121094 C 88.753906 87.859375 87.375 87.0625 86.605469 86.085938 C 85.128906 84.21875 85.203125 81.800781 86.910156 80.097656 C 87.308594 79.699219 88.695312 78.523438 89.171875 78.164062 C 89.414062 77.984375 89.585938 77.894531 89.828125 77.710938 L 91.589844 76.390625 C 92.058594 76.074219 92.332031 75.777344 92.777344 75.441406 C 93.054688 75.226562 93.867188 74.839844 93.867188 74.476562 C 93.867188 74.453125 92.238281 72.917969 92.238281 71.058594 C 92.238281 68.089844 94.140625 67.402344 94.957031 66.589844 C 95.90625 65.644531 96.359375 65.921875 96.347656 64.558594 C 96.332031 62.867188 97.210938 61.347656 97.875 59.84375 C 98.230469 59.050781 98.9375 58.847656 99.796875 57.828125 C 100.355469 57.164062 100.464844 57.421875 100.457031 56.179688 C 100.449219 55.238281 100.761719 54.246094 101.261719 53.566406 C 101.441406 53.324219 101.558594 53.15625 101.761719 52.953125 C 102.128906 52.59375 102.601562 52.175781 102.917969 51.800781 C 103.585938 51.003906 103.984375 50.742188 104.632812 50.089844 L 105.152344 49.5 C 106.054688 48.347656 106.699219 48.933594 105.867188 47.703125 C 104.855469 46.207031 104.8125 44.042969 105.921875 42.574219 C 106.601562 41.679688 107.574219 41.15625 108.453125 40.488281 C 108.761719 40.253906 109.960938 39.648438 109.960938 39.339844 C 109.960938 38.738281 108.980469 37.984375 109.761719 36.148438 C 109.839844 35.960938 109.863281 35.992188 109.957031 35.832031 C 110.378906 35.136719 111.179688 34.53125 111.070312 33.621094 C 110.949219 32.65625 110.984375 31.433594 111.417969 30.535156 C 110.890625 30.1875 110.382812 29.816406 109.9375 29.363281 L 109.617188 28.996094 C 109.609375 28.988281 109.582031 28.980469 109.578125 28.953125 C 109.5625 28.882812 109.414062 28.910156 109.363281 28.910156 C 109.164062 28.910156 108.683594 29.339844 107.050781 29.339844 " fill-opacity="1" fill-rule="evenodd"/></g><path fill="#ffffff" d="M 104.335938 47.660156 L 105.101562 45.125 L 106.078125 45.945312 C 106.371094 45.324219 109.589844 44.808594 111.5625 43.519531 C 114.570312 41.550781 120.125 43.019531 123.410156 43.679688 C 128.089844 44.621094 131.921875 47.464844 135.863281 49.65625 C 137.125 50.359375 140.550781 52.453125 140.820312 53.777344 C 141.757812 58.355469 141.628906 60.027344 138.730469 63.871094 C 136.199219 67.238281 132.789062 67.671875 128.964844 68.238281 C 124.992188 68.828125 122.503906 68.386719 119.519531 68.742188 C 115.710938 69.191406 110.996094 68.921875 107.566406 67.398438 C 104.507812 66.042969 102.683594 64.15625 99.328125 63.472656 C 97.011719 63 97.804688 57.546875 97.9375 55.570312 C 98.105469 53.113281 100.882812 49.371094 102.871094 47.976562 C 103.445312 47.792969 103.019531 47.882812 104.335938 47.660156 " fill-opacity="1" fill-rule="evenodd"/><path fill="#e6e6e6" d="M 35.363281 15.078125 C 37.648438 15.070312 38.949219 16.5 40.878906 16.636719 C 42.496094 16.753906 44.03125 15.1875 45.511719 14.472656 C 47.554688 13.484375 49.023438 13.871094 51.054688 13.554688 C 53.304688 13.203125 52.941406 11.425781 54.351562 10.1875 C 55.828125 8.894531 58.089844 10.167969 59.773438 10.109375 C 61.707031 10.039062 62.261719 8.269531 63.582031 7.113281 C 64.808594 6.039062 66.941406 5.097656 68.546875 5.082031 C 71.265625 5.058594 71.347656 6.878906 71.351562 9.152344 C 71.359375 11.621094 72.59375 12.984375 75.046875 12.988281 C 76.953125 12.996094 77.921875 11.089844 79.148438 9.867188 C 80.148438 8.867188 81.914062 7.085938 83 6.3125 C 87.46875 3.136719 88.890625 8.65625 93.226562 8.746094 C 95.527344 8.792969 96.152344 7.207031 97.75 6.046875 C 99.378906 4.863281 101.589844 4.507812 103.464844 5.203125 C 105.589844 5.996094 106.429688 7.171875 108.992188 6.835938 C 109.9375 6.710938 110.859375 6.351562 111.777344 6.109375 C 112.949219 5.796875 113.824219 5.742188 115.023438 5.742188 C 117.039062 5.738281 117.832031 5.847656 119.40625 7.152344 C 120.988281 8.464844 121.367188 8.226562 123.246094 8.511719 C 125.171875 8.800781 125.242188 9.851562 126.179688 11.3125 C 126.871094 12.394531 127.976562 13.558594 129.15625 14.039062 C 131.988281 15.191406 132.289062 14.578125 135.015625 16.621094 C 135.621094 17.074219 136.164062 17.320312 136.796875 17.695312 C 137.910156 18.351562 138.851562 19.53125 139.832031 20.410156 C 142.214844 22.539062 143.484375 23.3125 145.195312 26.566406 C 146.191406 28.453125 146.265625 28.375 147.871094 29.617188 C 149.152344 30.609375 149.84375 31.773438 149.375 33.460938 C 149.058594 34.59375 148.082031 36.453125 147.320312 37.339844 C 146.195312 38.652344 144.792969 38.679688 143.238281 38.308594 C 139.1875 37.335938 141.808594 33.449219 136.808594 33.203125 C 132.074219 32.972656 127.332031 33.089844 122.597656 33.140625 C 120.300781 33.164062 117.730469 32.683594 115.402344 32.476562 C 115.242188 32.742188 114.425781 35.335938 114.367188 35.539062 C 114.214844 36.09375 114.152344 36.617188 113.964844 37.179688 C 113.671875 38.035156 110.945312 38.449219 110.945312 39.335938 C 110.945312 40.359375 111.730469 40.59375 110.230469 41.125 C 107.882812 41.957031 109.269531 41.308594 107.085938 42.953125 C 106.339844 43.515625 108.429688 44.125 107.859375 44.992188 C 107.429688 45.644531 107.027344 46.378906 106.605469 47.046875 C 105.3125 49.09375 105.28125 49.238281 103.414062 50.546875 C 102.535156 51.160156 100.96875 53.289062 100.5 54.277344 C 100.023438 55.273438 100.609375 56.179688 100.214844 57.03125 C 99.789062 57.949219 99.863281 57.25 99.105469 59.253906 C 97.902344 62.4375 99.238281 61.53125 99.742188 64.191406 C 99.902344 65.0625 100.207031 66.230469 100.171875 67.09375 C 100.117188 68.453125 99.375 68.285156 98.992188 69.132812 C 98.597656 70 98.585938 74.167969 98.703125 75.210938 C 98.863281 76.636719 99.335938 76.390625 100.105469 77.175781 C 100.53125 77.609375 100.761719 78.800781 101.128906 79.480469 C 101.640625 80.429688 102.484375 83.585938 102.644531 84.726562 C 102.949219 86.875 103.714844 87.886719 104.3125 89.800781 C 104.664062 90.917969 104.515625 91.351562 105.738281 91.660156 C 107.066406 91.996094 106.808594 92.269531 107.375 93.335938 C 107.75 94.046875 108.265625 94.691406 108.648438 95.460938 C 109.296875 96.765625 111.890625 98.164062 112.699219 99.289062 C 113.390625 100.25 113.082031 100.558594 114.375 100.933594 C 115.964844 101.394531 115.230469 101.835938 115.960938 102.71875 C 116.574219 103.464844 116.972656 103.429688 117.46875 104.519531 C 118.449219 106.679688 120.449219 107.949219 120.457031 110.625 C 120.460938 111.546875 120.402344 112.433594 120.5625 113.351562 C 120.695312 114.144531 119.394531 115.484375 119.5625 116.210938 C 119.925781 117.800781 117.546875 119.363281 116.605469 120.351562 C 115.28125 121.742188 114.339844 122.105469 112.621094 122.996094 C 112.011719 123.3125 110.65625 122.679688 110.070312 123.074219 C 109.367188 123.550781 108.851562 123.808594 107.976562 123.671875 C 107.0625 123.527344 105.207031 124.472656 104.785156 123.753906 C 103.882812 122.210938 101.546875 120.765625 99.929688 121.191406 C 99.097656 121.410156 98.515625 121.65625 97.613281 121.582031 C 96.988281 121.53125 96.058594 121.023438 95.578125 121.160156 C 94.800781 121.382812 94.800781 122.730469 93.574219 122.734375 C 91.417969 122.734375 88.171875 126.007812 85.515625 124.054688 C 84.175781 123.066406 84.550781 122.804688 83.878906 121.53125 C 83.605469 121.007812 83.410156 120.792969 83.199219 120.1875 C 83.023438 119.691406 82.867188 119.214844 82.539062 118.800781 C 82.195312 118.949219 81.25 119.617188 80.894531 119.871094 C 80.082031 120.441406 79.375 119.203125 78.484375 119.398438 C 77.277344 119.660156 78.285156 119.703125 76.875 119.542969 C 75.847656 119.425781 75.523438 118.957031 74.839844 118.855469 C 73.558594 118.664062 72.21875 118.289062 71.515625 116.980469 C 71.074219 116.160156 71.316406 115.4375 71.117188 114.726562 C 70.695312 114.53125 69.886719 114.710938 69.273438 114.480469 C 68.375 114.140625 67.476562 113.386719 66.996094 112.539062 C 66.765625 112.128906 66.578125 111.386719 66.28125 111.109375 C 65.621094 111.042969 65.734375 111.34375 65.039062 111.339844 C 64.597656 111.335938 64.332031 111.253906 64.011719 111.628906 C 63.828125 111.839844 63.636719 112.230469 63.445312 112.488281 C 62.546875 113.710938 61.0625 115.59375 59.375 114.914062 C 58.632812 114.617188 58.203125 114.574219 57.648438 113.871094 C 57.183594 113.28125 56.964844 112.636719 56.820312 111.910156 C 56.441406 109.972656 57.984375 108.785156 57.425781 107.371094 C 55.363281 107.507812 48.84375 109.683594 44.617188 109.695312 C 39.960938 109.710938 42.332031 105.339844 38.855469 103.714844 C 37.035156 102.863281 36.582031 103.226562 35.394531 101.265625 C 34.492188 99.773438 33.730469 98.925781 31.871094 99.039062 C 29.617188 99.183594 26.347656 99.691406 24.253906 98.523438 C 23.230469 97.949219 22.835938 96.644531 22.652344 95.535156 C 22.476562 94.472656 22.457031 92.59375 21.789062 91.773438 C 21.046875 90.855469 19.6875 90.96875 18.65625 90.835938 C 15.300781 90.40625 17.398438 87.027344 14.726562 85.703125 C 13.664062 85.179688 12.59375 85.121094 12.164062 83.777344 C 11.851562 82.8125 11.863281 80.988281 11.648438 79.808594 C 11.179688 77.253906 9.828125 75.839844 8.242188 73.949219 C 5.789062 71.023438 7.144531 69.417969 6.320312 66.636719 C 5.949219 65.375 5.054688 65 4.230469 64.140625 C 3.394531 63.273438 3.050781 62.304688 2.519531 61.246094 C 0.792969 57.804688 2.078125 57.320312 2.015625 53.953125 L 1.988281 52.398438 C 1.929688 49.226562 3.414062 46.222656 3.414062 43.308594 C 3.417969 40.820312 2.679688 39.574219 4.257812 37.273438 C 6.324219 34.257812 8.667969 31.472656 11.222656 28.894531 C 12.628906 27.476562 14.121094 26.84375 15.617188 25.691406 C 17.03125 24.605469 17.660156 23.582031 19.667969 22.054688 C 24.269531 18.566406 26.433594 19.160156 30.285156 17.476562 C 32.316406 16.589844 32.867188 15.089844 35.363281 15.078125 " fill-opacity="1" fill-rule="evenodd"/><path fill="#ffffff" d="M 60.140625 38.566406 C 63.0625 39.984375 68.796875 42.300781 69.734375 45.300781 C 72.5625 54.355469 69.792969 52.742188 69.804688 58.054688 C 69.808594 59.128906 64.320312 64.128906 62.757812 64.617188 C 58.4375 65.964844 53.792969 65.945312 49.242188 66.285156 C 44.246094 66.660156 19.734375 68.332031 15.667969 61.257812 C 14.550781 59.3125 11.648438 54.714844 11.472656 52.542969 C 11.277344 50.132812 8.484375 46.675781 12.515625 44.328125 C 15.683594 42.484375 18.808594 39.53125 21.554688 38.101562 C 34.550781 31.34375 46.605469 31.984375 60.140625 38.566406 " fill-opacity="1" fill-rule="evenodd"/><path fill="#808080" d="M 74.34375 28.953125 C 68.621094 26.675781 66.621094 24.925781 59.839844 23.277344 C 55.433594 22.203125 45.445312 22.28125 40.550781 22.203125 C 34.941406 22.109375 27.21875 22.929688 21.601562 23.613281 C 15.21875 24.390625 11.785156 26.160156 5.960938 28.332031 C 9.355469 20.25 12.867188 20.269531 20.371094 18.394531 C 26.765625 16.792969 35.191406 16.105469 41.855469 15.515625 C 44.835938 15.25 50.660156 15.035156 53.503906 15.578125 C 53.84375 15.644531 62.226562 18.089844 62.347656 18.148438 C 72.371094 22.855469 74.296875 14.207031 74.34375 28.953125 " fill-opacity="1" fill-rule="evenodd"/><path fill="#808080" d="M 18.765625 47.066406 C 17.808594 40.429688 21.3125 39.503906 27.101562 36.925781 C 32.339844 34.59375 36.78125 40.191406 36.828125 45.003906 C 36.960938 57.472656 20.550781 59.441406 18.765625 47.066406 " fill-opacity="1" fill-rule="evenodd"/><path fill="#808080" d="M 109.023438 45.023438 C 113.957031 45.546875 115.824219 47.679688 116.277344 52.875 C 116.835938 59.300781 114.671875 60.5 108.570312 60.300781 C 104.5625 60.171875 102.289062 55.515625 101.535156 52.183594 C 101.046875 50.042969 106.839844 44.792969 109.023438 45.023438 " fill-opacity="1" fill-rule="evenodd"/><path fill="#808080" d="M 140.769531 27.621094 C 143.03125 28.132812 145.023438 31.097656 145.730469 33.0625 C 147.101562 36.871094 148.453125 37.902344 143.722656 35.40625 C 140.59375 33.753906 140.058594 32.558594 136.226562 32.511719 C 132.804688 32.46875 129.503906 32.167969 125.992188 32.222656 C 124.425781 32.25 122.800781 32.523438 121.207031 32.609375 C 119.289062 32.714844 117.835938 33.671875 117.105469 33.699219 C 116.335938 33.730469 117.390625 31.089844 117.472656 30.246094 C 117.699219 28.027344 119.253906 28.507812 121.03125 28.601562 C 126.226562 28.867188 135.785156 26.5 140.769531 27.621094 " fill-opacity="1" fill-rule="evenodd"/><path fill="#808080" d="M 103.984375 122.300781 C 103.65625 122.335938 103.261719 122.265625 103.257812 121.84375 L 103.9375 121.828125 C 104 122.1875 104.050781 122.03125 103.984375 122.300781 " fill-opacity="1" fill-rule="evenodd"/><path fill="#808080" d="M 104.222656 122.449219 C 104.136719 122.535156 103.941406 122.335938 104.117188 122.402344 C 104.117188 122.402344 104.363281 122.308594 104.222656 122.449219 " fill-opacity="1" fill-rule="evenodd"/><g clip-path="url(#id7)"><path fill="#3b3b3b" d="M 109.023438 45.023438 C 106.839844 44.792969 101.050781 50.042969 101.535156 52.183594 C 102.289062 55.515625 104.5625 60.171875 108.570312 60.300781 C 114.671875 60.5 116.835938 59.300781 116.277344 52.875 C 115.824219 47.679688 113.957031 45.546875 109.023438 45.023438 Z M 140.769531 27.621094 C 135.789062 26.5 126.230469 28.867188 121.03125 28.601562 C 119.253906 28.507812 117.699219 28.027344 117.472656 30.246094 C 117.390625 31.089844 116.339844 33.730469 117.105469 33.699219 C 117.839844 33.671875 119.289062 32.714844 121.207031 32.609375 C 122.800781 32.523438 124.425781 32.25 125.992188 32.222656 C 129.503906 32.167969 132.808594 32.46875 136.226562 32.511719 C 140.058594 32.558594 140.597656 33.75 143.722656 35.40625 C 148.453125 37.902344 147.101562 36.871094 145.730469 33.0625 C 145.023438 31.09375 143.03125 28.128906 140.769531 27.621094 Z M 117.777344 108.878906 C 116.695312 105.136719 112.195312 99.019531 109.347656 96.289062 C 101.886719 88.535156 98.332031 76.09375 97.210938 66.367188 C 96.800781 62.792969 97.765625 51.542969 99.953125 48.84375 C 102.855469 45.269531 106.878906 41.367188 110.039062 37.871094 C 115.65625 31.65625 116.667969 33.296875 116.441406 23.132812 C 116.433594 22.746094 114.847656 14.820312 116.800781 16.980469 C 118.566406 18.929688 118.007812 23.777344 118.003906 26.378906 C 124.1875 26.378906 135.816406 24.589844 141.132812 25.746094 C 143.75 26.3125 146.171875 29.714844 146.96875 31.996094 C 147.386719 33.191406 150.730469 39.90625 150.683594 40.191406 C 149.175781 42.019531 142.882812 37.402344 141.09375 36.441406 C 136.550781 34.003906 133.691406 34.167969 128.496094 34.191406 C 117.730469 34.246094 115.292969 35.34375 108.222656 43.335938 C 115.550781 41.796875 118.605469 40.445312 126.304688 43.125 C 129.988281 44.40625 136.949219 48.179688 140 50.605469 C 141.550781 51.835938 140.523438 53.335938 139.0625 52.691406 C 138.554688 52.46875 136.765625 50.96875 135.941406 50.46875 C 133.566406 49.015625 131.835938 47.78125 129.238281 46.59375 C 127.050781 45.589844 123.960938 44.132812 121.65625 43.597656 C 120.824219 43.402344 111.78125 43.175781 111.761719 43.796875 C 118.375 45.214844 120.304688 57.253906 116.066406 60.582031 C 113.777344 62.378906 108.113281 62.738281 105.648438 61.355469 C 101.21875 58.875 100.910156 54.371094 100.0625 54.273438 L 99.242188 61.003906 C 108.683594 66.597656 105.589844 67.351562 118.058594 68.050781 C 121.816406 68.261719 132.636719 68.558594 136.761719 65.058594 C 140.742188 61.6875 139.835938 58.019531 140.46875 55.96875 L 140.679688 56.035156 C 142.429688 56.261719 141.234375 62.671875 140.730469 63.1875 C 133.570312 70.539062 128.195312 70.335938 116.246094 69.96875 C 113.441406 69.878906 109.492188 70.0625 106.777344 68.332031 C 104.722656 67.015625 103.40625 65.773438 101.464844 64.644531 C 99.207031 68.667969 100.25 76.027344 102.59375 81.964844 C 107.078125 93.332031 117.5625 102.0625 119.738281 107.476562 C 120.332031 108.957031 120.65625 110.8125 120.5625 113.351562 C 120.304688 120.023438 115.09375 124.308594 108.546875 124.90625 C 102.738281 125.433594 100.945312 119.207031 91.347656 124.566406 C 81.820312 129.886719 80.210938 114.042969 82.445312 115.128906 C 83.957031 115.863281 82.027344 121 86.117188 122.722656 C 90.476562 124.558594 90.855469 123.097656 94.289062 121.40625 C 99.933594 118.625 103.355469 121.953125 108.246094 122.378906 C 114.746094 122.949219 120.558594 118.339844 117.777344 108.878906 " fill-opacity="1" fill-rule="evenodd"/></g><path fill="#3b3b3b" d="M 74.34375 28.953125 C 74.296875 14.207031 72.371094 22.855469 62.347656 18.148438 C 62.226562 18.089844 53.84375 15.644531 53.503906 15.578125 C 50.660156 15.035156 44.835938 15.25 41.855469 15.515625 C 35.191406 16.105469 26.765625 16.792969 20.371094 18.394531 C 12.867188 20.269531 9.355469 20.25 5.960938 28.332031 C 11.785156 26.160156 15.21875 24.390625 21.601562 23.613281 C 27.21875 22.929688 34.941406 22.109375 40.550781 22.203125 C 45.445312 22.28125 55.433594 22.203125 59.839844 23.277344 C 66.621094 24.925781 68.621094 26.675781 74.34375 28.953125 Z M 77.171875 31.691406 C 73.933594 31.679688 71.074219 28.621094 67.535156 27.316406 C 64.253906 26.105469 58.199219 24.679688 54.746094 24.546875 C 47.3125 24.257812 32.078125 23.964844 25.109375 25.238281 C 20.566406 26.066406 16.867188 26.257812 12.523438 28.136719 C 10.765625 28.898438 8.773438 29.660156 6.96875 30.308594 C 5.8125 30.722656 2.378906 33.160156 2.550781 30.785156 C 2.710938 28.644531 6.636719 23.042969 8.222656 21.355469 C 13.910156 15.316406 9.398438 18.429688 17.917969 16.566406 C 26.457031 14.699219 36.773438 13.265625 45.527344 13.15625 C 51.964844 13.074219 53.09375 13.351562 59.046875 15.1875 C 61.347656 15.898438 69.367188 18.691406 71.207031 17.449219 C 73.472656 15.917969 69.953125 8.429688 69.015625 6.285156 C 68.769531 5.730469 67.394531 1.300781 69.441406 3.617188 C 70.671875 5.011719 71.128906 7.585938 71.769531 9.378906 C 73.496094 14.230469 77.546875 26.859375 77.171875 31.691406 " fill-opacity="1" fill-rule="evenodd"/><path fill="#3b3b3b" d="M 18.765625 47.066406 C 20.550781 59.441406 36.960938 57.472656 36.828125 45.003906 C 36.78125 40.191406 32.339844 34.59375 27.101562 36.925781 C 21.3125 39.503906 17.808594 40.429688 18.765625 47.066406 Z M 32.992188 34.988281 C 36.464844 38.496094 38.921875 39.4375 38.964844 45.371094 C 39 50.285156 37.082031 53.210938 32.953125 55.816406 C 23.066406 62.0625 16.734375 52.136719 16.71875 42.980469 C 14.84375 43.027344 11.351562 47.371094 10.234375 46.105469 C 8.703125 44.371094 13.628906 41.824219 14.824219 41.175781 C 19.484375 38.644531 22.8125 35.910156 28.242188 34.152344 C 38.96875 30.6875 52.015625 32.542969 61.628906 38.359375 C 63.800781 39.675781 65.828125 40.953125 68.101562 42.113281 C 69.957031 43.058594 74.3125 44.066406 71.167969 45.433594 C 70.359375 45.789062 71.777344 47.824219 71.574219 49.121094 C 71.429688 50.054688 69.984375 51.613281 69.84375 48.539062 C 69.671875 44.855469 68.277344 44.132812 65.519531 42.644531 C 53.839844 36.328125 46.992188 33.167969 32.992188 34.988281 " fill-opacity="1" fill-rule="evenodd"/><path fill="#3b3b3b" d="M 70.074219 58.964844 C 69.34375 62.027344 63.503906 66.183594 60.308594 66.707031 C 54.824219 67.597656 48.855469 67.964844 43.304688 68.011719 C 36.496094 68.070312 16.507812 69.273438 14.191406 60.417969 C 13.417969 57.464844 17.605469 62.574219 17.65625 62.628906 C 18.625 63.65625 22.195312 64.46875 23.65625 64.875 C 27.394531 65.921875 36.648438 65.769531 40.910156 65.832031 C 47.148438 65.917969 51.855469 65.53125 58 65.023438 C 66.007812 64.359375 64.378906 60.65625 70.074219 58.964844 " fill-opacity="1" fill-rule="evenodd"/><path fill="#3b3b3b" d="M 99.6875 6.488281 C 101.84375 6.832031 105.820312 20.601562 106.019531 23.074219 C 106.21875 25.558594 105.414062 41.664062 101.25 40.761719 C 100.898438 40.683594 103.800781 34.507812 104.121094 33.292969 C 104.914062 30.253906 104.992188 25.851562 104.664062 22.734375 C 104.339844 19.671875 103.324219 16.648438 102.113281 13.828125 C 101.777344 13.046875 98.027344 6.222656 99.6875 6.488281 " fill-opacity="1" fill-rule="evenodd"/><path fill="#3b3b3b" d="M 135.878906 73.082031 C 137.890625 74.140625 121.96875 76.917969 118.359375 74.617188 C 116.613281 73.503906 125.511719 74.351562 126.609375 74.304688 C 127.695312 74.257812 135.789062 73.035156 135.878906 73.082031 " fill-opacity="1" fill-rule="evenodd"/><path fill="#3b3b3b" d="M 25.613281 76.542969 C 26.726562 76.753906 38.578125 77.722656 32.101562 78.496094 C 25.328125 79.308594 21.285156 75.734375 25.613281 76.542969 " fill-opacity="1" fill-rule="evenodd"/><path fill="#3b3b3b" d="M 73.808594 56.035156 C 75.988281 56.71875 75.851562 63.394531 72.460938 63.121094 C 70.195312 62.9375 73.59375 61.402344 73.710938 60.191406 C 73.84375 58.808594 72.511719 55.625 73.808594 56.035156 " fill-opacity="1" fill-rule="evenodd"/><path fill="#3b3b3b" d="M 81.722656 28.597656 C 82.289062 28.949219 87.375 40 85.132812 38.121094 C 85.128906 38.121094 79.203125 27.035156 81.722656 28.597656 " fill-opacity="1" fill-rule="evenodd"/><path fill="#3b3b3b" d="M 90.617188 1.339844 C 91.757812 1.710938 93.972656 12.042969 92.722656 10.738281 C 92.40625 10.410156 88.933594 0.789062 90.617188 1.339844 " fill-opacity="1" fill-rule="evenodd"/><path fill="#3b3b3b" d="M 49.175781 76.277344 C 50.820312 77.382812 42.441406 79.121094 40.925781 77.367188 C 39.628906 75.867188 43.496094 76.953125 44.441406 76.886719 C 45.070312 76.84375 48.984375 76.148438 49.175781 76.277344 " fill-opacity="1" fill-rule="evenodd"/><path fill="#3b3b3b" d="M 110.316406 73.636719 C 109.703125 74.148438 105.765625 74.105469 105.925781 73.191406 C 106.039062 72.566406 107.6875 72.902344 108.226562 72.902344 C 108.820312 72.898438 110.152344 72.9375 110.316406 73.636719 " fill-opacity="1" fill-rule="evenodd"/><g clip-path="url(#id8)"><path fill="#3b3b3b" d="M 150.71875 41.671875 L 150.292969 41.738281 C 150.449219 41.597656 150.558594 41.503906 150.71875 41.671875 " fill-opacity="1" fill-rule="evenodd"/></g><path fill="#3b3b3b" d="M 113.292969 120.851562 L 113.265625 120.824219 C 113.265625 120.828125 113.300781 120.84375 113.292969 120.851562 " fill-opacity="1" fill-rule="evenodd"/></g></g></g></svg>