<svg xmlns="http://www.w3.org/2000/svg" xmlns:xlink="http://www.w3.org/1999/xlink" width="500" zoomAndPan="magnify" viewBox="0 0 375 374.999991" height="500" preserveAspectRatio="xMidYMid meet" version="1.0"><defs><clipPath id="6bb61bd93b"><path d="M 187 187 L 337.5 187 L 337.5 264 L 187 264 Z M 187 187 " clip-rule="nonzero"/></clipPath><clipPath id="55e0cbdb28"><path d="M 111 187 L 188 187 L 188 337.5 L 111 337.5 Z M 111 187 " clip-rule="nonzero"/></clipPath><clipPath id="41ed9b7670"><path d="M 37.5 186 L 188 186 L 188 262 L 37.5 262 Z M 37.5 186 " clip-rule="nonzero"/></clipPath><clipPath id="5f207b3a54"><path d="M 186 187 L 262 187 L 262 337.5 L 186 337.5 Z M 186 187 " clip-rule="nonzero"/></clipPath><clipPath id="4b376976f2"><path d="M 187 113 L 337.5 113 L 337.5 189 L 187 189 Z M 187 113 " clip-rule="nonzero"/></clipPath><clipPath id="d58cc3756a"><path d="M 37.5 111 L 188 111 L 188 188 L 37.5 188 Z M 37.5 111 " clip-rule="nonzero"/></clipPath><clipPath id="0764363842"><path d="M 187 37.5 L 264 37.5 L 264 188 L 187 188 Z M 187 37.5 " clip-rule="nonzero"/></clipPath><clipPath id="9cefd4c363"><path d="M 113 37.5 L 189 37.5 L 189 188 L 113 188 Z M 113 37.5 " clip-rule="nonzero"/></clipPath></defs><path fill="#a01647" d="M 111.527344 316.644531 C 88.894531 303.308594 70.09375 284.203125 57.136719 261.351562 L 187.5 187.5 L 111.527344 316.644531 " fill-opacity="1" fill-rule="nonzero"/><g clip-path="url(#6bb61bd93b)"><path fill="#3d8cce" d="M 337.273438 188.722656 C 337.050781 216.023438 329.554688 241.546875 316.644531 263.472656 L 187.5 187.5 L 337.273438 188.722656 " fill-opacity="1" fill-rule="nonzero"/></g><g clip-path="url(#55e0cbdb28)"><path fill="#742594" d="M 186.277344 337.273438 C 158.976562 337.050781 133.453125 329.554688 111.527344 316.644531 L 187.5 187.5 L 186.277344 337.273438 " fill-opacity="1" fill-rule="nonzero"/></g><g clip-path="url(#41ed9b7670)"><path fill="#ee2423" d="M 57.136719 261.351562 C 44.578125 239.21875 37.503906 213.578125 37.726562 186.277344 L 187.5 187.5 L 57.136719 261.351562 " fill-opacity="1" fill-rule="nonzero"/></g><path fill="#4053ad" d="M 316.644531 263.472656 C 303.308594 286.105469 284.203125 304.902344 261.351562 317.863281 L 187.5 187.5 L 316.644531 263.472656 " fill-opacity="1" fill-rule="nonzero"/><g clip-path="url(#5f207b3a54)"><path fill="#3f2c90" d="M 261.351562 317.863281 C 239.21875 330.421875 213.578125 337.496094 186.277344 337.273438 L 187.5 187.5 L 261.351562 317.863281 " fill-opacity="1" fill-rule="nonzero"/></g><path fill="#bedf1e" d="M 263.472656 58.355469 C 286.105469 71.691406 304.902344 90.796875 317.863281 113.648438 L 187.5 187.5 L 263.472656 58.355469 " fill-opacity="1" fill-rule="nonzero"/><g clip-path="url(#4b376976f2)"><path fill="#57af35" d="M 187.5 187.5 L 317.863281 113.648438 C 330.421875 135.78125 337.496094 161.421875 337.273438 188.722656 L 187.5 187.5 " fill-opacity="1" fill-rule="nonzero"/></g><g clip-path="url(#d58cc3756a)"><path fill="#f0401e" d="M 37.726562 186.277344 C 37.949219 158.976562 45.445312 133.453125 58.359375 111.527344 L 187.5 187.5 L 37.726562 186.277344 " fill-opacity="1" fill-rule="nonzero"/></g><g clip-path="url(#0764363842)"><path fill="#ecee26" d="M 188.722656 37.726562 C 216.023438 37.949219 241.546875 45.445312 263.472656 58.355469 L 187.5 187.5 L 188.722656 37.726562 " fill-opacity="1" fill-rule="nonzero"/></g><g clip-path="url(#9cefd4c363)"><path fill="#edb10e" d="M 113.644531 57.136719 C 135.78125 44.578125 161.421875 37.503906 188.722656 37.726562 L 187.5 187.5 L 113.644531 57.136719 " fill-opacity="1" fill-rule="nonzero"/></g><path fill="#f28913" d="M 58.359375 111.527344 C 71.691406 88.894531 90.796875 70.097656 113.644531 57.136719 L 187.5 187.5 L 58.359375 111.527344 " fill-opacity="1" fill-rule="nonzero"/></svg>