<svg xmlns="http://www.w3.org/2000/svg" xmlns:xlink="http://www.w3.org/1999/xlink" width="500" zoomAndPan="magnify" viewBox="0 0 375 374.999991" height="500" preserveAspectRatio="xMidYMid meet" version="1.0"><defs><g/><clipPath id="2e1f22eb28"><path d="M 120 82 L 254 82 L 254 293.976562 L 120 293.976562 Z M 120 82 " clip-rule="nonzero"/></clipPath><clipPath id="06c302041d"><path d="M 120 82 L 254 82 L 254 293.976562 L 120 293.976562 Z M 120 82 " clip-rule="nonzero"/></clipPath><clipPath id="dca232e7d7"><path d="M 100 239 L 116 239 L 116 293.976562 L 100 293.976562 Z M 100 239 " clip-rule="nonzero"/></clipPath><clipPath id="d60f1280eb"><path d="M 81.300781 259 L 136 259 L 136 274 L 81.300781 274 Z M 81.300781 259 " clip-rule="nonzero"/></clipPath></defs><g clip-path="url(#2e1f22eb28)"><path fill="#8a229b" d="M 191.652344 83.925781 C 188.921875 81.648438 184.949219 81.648438 182.21875 83.925781 L 123.257812 133.058594 C 121.578125 134.457031 120.609375 136.53125 120.609375 138.71875 L 120.609375 236.984375 C 120.609375 239.171875 121.578125 241.246094 123.257812 242.644531 L 182.21875 291.777344 C 184.949219 294.054688 188.921875 294.054688 191.652344 291.777344 L 250.613281 242.644531 C 252.292969 241.246094 253.265625 239.171875 253.265625 236.984375 L 253.265625 138.71875 C 253.265625 136.53125 252.292969 134.457031 250.613281 133.058594 Z M 191.652344 83.925781 " fill-opacity="1" fill-rule="nonzero"/></g><path fill="#eceff1" d="M 181.957031 123.460938 C 184.773438 120.878906 189.097656 120.878906 191.914062 123.460938 L 221.394531 150.484375 C 222.917969 151.878906 223.785156 153.851562 223.785156 155.914062 L 223.785156 219.789062 C 223.785156 221.851562 222.917969 223.824219 221.394531 225.21875 L 191.914062 252.242188 C 189.097656 254.824219 184.773438 254.824219 181.957031 252.242188 L 152.476562 225.21875 C 150.953125 223.824219 150.085938 221.851562 150.085938 219.789062 L 150.085938 155.914062 C 150.085938 153.851562 150.953125 151.878906 152.476562 150.484375 Z M 164.828125 159.15625 L 164.828125 216.546875 L 186.9375 236.8125 L 209.046875 216.546875 L 209.046875 159.15625 L 186.9375 138.890625 Z M 164.828125 159.15625 " fill-opacity="1" fill-rule="evenodd"/><g clip-path="url(#06c302041d)"><path fill="#eceff1" d="M 120.609375 143.273438 L 120.609375 138.71875 C 120.609375 136.53125 121.578125 134.457031 123.257812 133.058594 L 126.960938 129.972656 L 131.273438 132.128906 L 160.753906 146.867188 C 164.394531 148.6875 165.867188 153.113281 164.046875 156.753906 C 162.226562 160.394531 157.800781 161.871094 154.160156 160.050781 L 124.683594 145.3125 Z M 126.960938 245.730469 L 123.257812 242.644531 C 121.578125 241.246094 120.609375 239.171875 120.609375 236.984375 L 120.609375 232.429688 L 124.683594 230.390625 L 154.160156 215.652344 C 157.800781 213.832031 162.226562 215.308594 164.046875 218.949219 C 165.867188 222.589844 164.394531 227.015625 160.753906 228.835938 L 131.273438 243.574219 Z M 194.304688 289.566406 L 191.652344 291.777344 C 188.921875 294.054688 184.949219 294.054688 182.21875 291.777344 L 179.566406 289.566406 L 179.566406 246.808594 C 179.566406 242.738281 182.867188 239.441406 186.9375 239.441406 C 191.007812 239.441406 194.304688 242.738281 194.304688 246.808594 Z M 253.265625 232.429688 L 253.265625 236.984375 C 253.265625 239.171875 252.292969 241.246094 250.613281 242.644531 L 246.910156 245.730469 L 213.121094 228.835938 C 209.480469 227.015625 208.003906 222.589844 209.824219 218.949219 C 211.644531 215.308594 216.070312 213.832031 219.710938 215.652344 L 249.191406 230.390625 Z M 246.910156 129.972656 L 250.613281 133.058594 C 252.292969 134.457031 253.265625 136.53125 253.265625 138.71875 L 253.265625 143.273438 L 249.191406 145.3125 L 219.710938 160.050781 C 216.070312 161.871094 211.644531 160.394531 209.824219 156.753906 C 208.003906 153.113281 209.480469 148.6875 213.121094 146.867188 Z M 194.304688 86.136719 L 194.304688 128.894531 C 194.304688 132.964844 191.007812 136.261719 186.9375 136.261719 C 182.867188 136.261719 179.566406 132.964844 179.566406 128.894531 L 179.566406 86.136719 L 182.21875 83.925781 C 184.949219 81.648438 188.921875 81.648438 191.652344 83.925781 Z M 194.304688 86.136719 " fill-opacity="1" fill-rule="evenodd"/></g><path fill="#eceff1" d="M 206.886719 138.421875 C 209.765625 141.300781 209.765625 145.964844 206.886719 148.84375 L 162.667969 193.0625 C 159.789062 195.941406 155.125 195.941406 152.246094 193.0625 C 149.367188 190.183594 149.367188 185.519531 152.246094 182.640625 L 196.464844 138.421875 C 199.34375 135.542969 204.007812 135.542969 206.886719 138.421875 Z M 206.886719 138.421875 " fill-opacity="1" fill-rule="evenodd"/><path fill="#eceff1" d="M 221.625 158.074219 C 224.503906 160.953125 224.503906 165.617188 221.625 168.496094 L 162.667969 227.453125 C 159.789062 230.332031 155.125 230.332031 152.246094 227.453125 C 149.367188 224.578125 149.367188 219.910156 152.246094 217.03125 L 211.203125 158.074219 C 214.082031 155.195312 218.746094 155.195312 221.625 158.074219 Z M 221.625 158.074219 " fill-opacity="1" fill-rule="evenodd"/><path fill="#8a229b" d="M 265.546875 82.21875 C 269.617188 82.21875 272.917969 85.515625 272.917969 89.585938 L 272.917969 128.894531 C 272.917969 132.964844 269.617188 136.261719 265.546875 136.261719 C 261.476562 136.261719 258.175781 132.964844 258.175781 128.894531 L 258.175781 89.585938 C 258.175781 85.515625 261.476562 82.21875 265.546875 82.21875 Z M 265.546875 82.21875 " fill-opacity="1" fill-rule="evenodd"/><g clip-path="url(#dca232e7d7)"><path fill="#8a229b" d="M 108.324219 239.441406 C 112.394531 239.441406 115.695312 242.738281 115.695312 246.808594 L 115.695312 286.117188 C 115.695312 290.183594 112.394531 293.484375 108.324219 293.484375 C 104.253906 293.484375 100.953125 290.183594 100.953125 286.117188 L 100.953125 246.808594 C 100.953125 242.738281 104.253906 239.441406 108.324219 239.441406 Z M 108.324219 239.441406 " fill-opacity="1" fill-rule="evenodd"/></g><path fill="#8a229b" d="M 238.523438 109.242188 C 238.523438 105.171875 241.824219 101.871094 245.894531 101.871094 L 285.199219 101.871094 C 289.269531 101.871094 292.570312 105.171875 292.570312 109.242188 C 292.570312 113.308594 289.269531 116.609375 285.199219 116.609375 L 245.894531 116.609375 C 241.824219 116.609375 238.523438 113.308594 238.523438 109.242188 Z M 238.523438 109.242188 " fill-opacity="1" fill-rule="evenodd"/><g clip-path="url(#d60f1280eb)"><path fill="#8a229b" d="M 81.300781 266.460938 C 81.300781 262.390625 84.601562 259.09375 88.671875 259.09375 L 127.976562 259.09375 C 132.046875 259.09375 135.347656 262.390625 135.347656 266.460938 C 135.347656 270.53125 132.046875 273.832031 127.976562 273.832031 L 88.671875 273.832031 C 84.601562 273.832031 81.300781 270.53125 81.300781 266.460938 Z M 81.300781 266.460938 " fill-opacity="1" fill-rule="evenodd"/></g><g fill="#ff8dd0" fill-opacity="1"><g transform="translate(129.004907, 322.280039)"><g><path d="M 5.167969 -2.675781 C 5.167969 -2.152344 4.984375 -1.691406 4.621094 -1.3125 C 4.253906 -0.925781 3.804688 -0.730469 3.28125 -0.730469 C 2.746094 -0.730469 2.296875 -0.925781 1.933594 -1.3125 C 1.566406 -1.691406 1.398438 -2.152344 1.398438 -2.675781 C 1.398438 -3.183594 1.566406 -3.648438 1.933594 -4.035156 C 2.296875 -4.425781 2.746094 -4.621094 3.28125 -4.621094 C 3.804688 -4.621094 4.253906 -4.425781 4.621094 -4.035156 C 4.984375 -3.648438 5.167969 -3.183594 5.167969 -2.675781 Z M 6.019531 0 L 6.019531 -9.117188 L 5.167969 -9.117188 L 5.167969 -4.425781 C 5.117188 -4.5 5.058594 -4.558594 5.007812 -4.621094 C 4.5 -5.179688 3.878906 -5.472656 3.148438 -5.472656 C 2.40625 -5.472656 1.789062 -5.179688 1.277344 -4.621094 C 0.789062 -4.058594 0.546875 -3.417969 0.546875 -2.675781 C 0.546875 -1.921875 0.789062 -1.277344 1.277344 -0.730469 C 1.789062 -0.15625 2.40625 0.121094 3.148438 0.121094 C 3.878906 0.121094 4.5 -0.15625 5.007812 -0.730469 C 5.058594 -0.777344 5.117188 -0.839844 5.167969 -0.910156 L 5.167969 0 Z M 6.019531 0 "/></g></g></g><g fill="#ff8dd0" fill-opacity="1"><g transform="translate(138.365609, 322.280039)"><g><path d="M 1.773438 -7.195312 C 1.664062 -7.292969 1.53125 -7.355469 1.386719 -7.355469 C 1.238281 -7.355469 1.105469 -7.292969 1.007812 -7.195312 C 0.898438 -7.085938 0.851562 -6.953125 0.851562 -6.808594 C 0.851562 -6.664062 0.898438 -6.527344 1.007812 -6.429688 C 1.105469 -6.320312 1.238281 -6.273438 1.386719 -6.273438 C 1.53125 -6.273438 1.664062 -6.320312 1.773438 -6.429688 C 1.871094 -6.527344 1.933594 -6.664062 1.933594 -6.808594 C 1.933594 -6.953125 1.871094 -7.085938 1.773438 -7.195312 Z M 1.824219 0 L 1.824219 -5.347656 L 0.972656 -5.347656 L 0.972656 0 Z M 1.824219 0 "/></g></g></g><g fill="#ff8dd0" fill-opacity="1"><g transform="translate(143.581098, 322.280039)"><g><path d="M 1.675781 -0.753906 C 1.472656 -0.898438 1.3125 -1.144531 1.226562 -1.496094 L 0.328125 -1.496094 C 0.511719 -0.390625 1.214844 0.15625 2.457031 0.15625 C 2.746094 0.15625 3.015625 0.132812 3.269531 0.0625 C 3.527344 -0.0117188 3.746094 -0.109375 3.949219 -0.242188 C 4.363281 -0.523438 4.570312 -0.949219 4.570312 -1.519531 C 4.570312 -2.101562 4.304688 -2.515625 3.746094 -2.785156 C 3.511719 -2.894531 3.257812 -2.980469 2.980469 -3.039062 C 2.710938 -3.101562 2.457031 -3.171875 2.226562 -3.246094 C 1.980469 -3.320312 1.789062 -3.417969 1.628906 -3.527344 C 1.472656 -3.636719 1.386719 -3.804688 1.386719 -4.046875 C 1.386719 -4.292969 1.484375 -4.472656 1.675781 -4.582031 C 1.871094 -4.703125 2.101562 -4.765625 2.359375 -4.765625 C 2.625 -4.765625 2.855469 -4.703125 3.039062 -4.609375 C 3.222656 -4.511719 3.367188 -4.316406 3.453125 -4.023438 L 4.363281 -4.023438 C 4.253906 -4.558594 4.023438 -4.9375 3.683594 -5.140625 C 3.332031 -5.363281 2.90625 -5.472656 2.382812 -5.472656 C 1.871094 -5.472656 1.421875 -5.324219 1.046875 -5.058594 C 0.679688 -4.777344 0.484375 -4.375 0.484375 -3.839844 C 0.484375 -3.585938 0.558594 -3.355469 0.691406 -3.160156 C 0.839844 -2.953125 1.046875 -2.796875 1.3125 -2.675781 C 1.554688 -2.566406 1.8125 -2.480469 2.078125 -2.40625 C 2.347656 -2.347656 2.601562 -2.273438 2.84375 -2.199219 C 3.390625 -2.019531 3.671875 -1.75 3.671875 -1.410156 C 3.671875 -0.828125 3.28125 -0.546875 2.503906 -0.546875 C 2.175781 -0.546875 1.898438 -0.609375 1.675781 -0.753906 Z M 1.675781 -0.753906 "/></g></g></g><g fill="#ff8dd0" fill-opacity="1"><g transform="translate(150.899584, 322.280039)"><g><path d="M 5.910156 -3.429688 C 5.738281 -4.023438 5.410156 -4.511719 4.9375 -4.886719 C 4.4375 -5.265625 3.890625 -5.457031 3.28125 -5.457031 C 2.515625 -5.457031 1.859375 -5.179688 1.335938 -4.632812 C 0.800781 -4.085938 0.546875 -3.429688 0.546875 -2.675781 C 0.546875 -1.910156 0.800781 -1.265625 1.335938 -0.707031 C 1.582031 -0.449219 1.859375 -0.242188 2.199219 -0.0976562 C 2.527344 0.046875 2.867188 0.121094 3.210938 0.121094 C 3.550781 0.121094 3.855469 0.0859375 4.121094 -0.0117188 C 4.972656 -0.316406 5.554688 -0.886719 5.859375 -1.75 L 4.898438 -1.75 C 4.730469 -1.445312 4.511719 -1.203125 4.21875 -1.035156 C 3.925781 -0.851562 3.621094 -0.765625 3.28125 -0.765625 C 2.757812 -0.765625 2.320312 -0.949219 1.957031 -1.324219 C 1.59375 -1.703125 1.421875 -2.152344 1.421875 -2.675781 C 1.421875 -3.171875 1.59375 -3.621094 1.957031 -4 C 2.128906 -4.171875 2.320312 -4.316406 2.554688 -4.414062 C 2.773438 -4.511719 3.050781 -4.570312 3.367188 -4.570312 C 3.683594 -4.570312 3.988281 -4.460938 4.304688 -4.253906 C 4.609375 -4.035156 4.839844 -3.769531 4.984375 -3.429688 Z M 5.910156 -3.429688 "/></g></g></g><g fill="#ff8dd0" fill-opacity="1"><g transform="translate(159.664642, 322.280039)"><g><path d="M 1.675781 -0.753906 C 1.472656 -0.898438 1.3125 -1.144531 1.226562 -1.496094 L 0.328125 -1.496094 C 0.511719 -0.390625 1.214844 0.15625 2.457031 0.15625 C 2.746094 0.15625 3.015625 0.132812 3.269531 0.0625 C 3.527344 -0.0117188 3.746094 -0.109375 3.949219 -0.242188 C 4.363281 -0.523438 4.570312 -0.949219 4.570312 -1.519531 C 4.570312 -2.101562 4.304688 -2.515625 3.746094 -2.785156 C 3.511719 -2.894531 3.257812 -2.980469 2.980469 -3.039062 C 2.710938 -3.101562 2.457031 -3.171875 2.226562 -3.246094 C 1.980469 -3.320312 1.789062 -3.417969 1.628906 -3.527344 C 1.472656 -3.636719 1.386719 -3.804688 1.386719 -4.046875 C 1.386719 -4.292969 1.484375 -4.472656 1.675781 -4.582031 C 1.871094 -4.703125 2.101562 -4.765625 2.359375 -4.765625 C 2.625 -4.765625 2.855469 -4.703125 3.039062 -4.609375 C 3.222656 -4.511719 3.367188 -4.316406 3.453125 -4.023438 L 4.363281 -4.023438 C 4.253906 -4.558594 4.023438 -4.9375 3.683594 -5.140625 C 3.332031 -5.363281 2.90625 -5.472656 2.382812 -5.472656 C 1.871094 -5.472656 1.421875 -5.324219 1.046875 -5.058594 C 0.679688 -4.777344 0.484375 -4.375 0.484375 -3.839844 C 0.484375 -3.585938 0.558594 -3.355469 0.691406 -3.160156 C 0.839844 -2.953125 1.046875 -2.796875 1.3125 -2.675781 C 1.554688 -2.566406 1.8125 -2.480469 2.078125 -2.40625 C 2.347656 -2.347656 2.601562 -2.273438 2.84375 -2.199219 C 3.390625 -2.019531 3.671875 -1.75 3.671875 -1.410156 C 3.671875 -0.828125 3.28125 -0.546875 2.503906 -0.546875 C 2.175781 -0.546875 1.898438 -0.609375 1.675781 -0.753906 Z M 1.675781 -0.753906 "/></g></g></g><g fill="#ff8dd0" fill-opacity="1"><g transform="translate(166.983128, 322.280039)"><g><path d="M 5.289062 -2.699219 C 5.289062 -2.164062 5.09375 -1.714844 4.71875 -1.335938 C 4.328125 -0.949219 3.878906 -0.765625 3.34375 -0.765625 C 2.808594 -0.765625 2.347656 -0.949219 1.96875 -1.335938 C 1.582031 -1.714844 1.398438 -2.164062 1.398438 -2.699219 C 1.398438 -3.234375 1.582031 -3.683594 1.96875 -4.074219 C 2.347656 -4.449219 2.808594 -4.644531 3.34375 -4.644531 C 3.878906 -4.644531 4.328125 -4.449219 4.71875 -4.074219 C 5.09375 -3.683594 5.289062 -3.234375 5.289062 -2.699219 Z M 6.140625 -2.699219 C 6.140625 -3.464844 5.859375 -4.121094 5.3125 -4.667969 C 4.765625 -5.214844 4.109375 -5.496094 3.34375 -5.496094 C 2.566406 -5.496094 1.910156 -5.214844 1.363281 -4.667969 C 0.816406 -4.121094 0.546875 -3.464844 0.546875 -2.699219 C 0.546875 -1.921875 0.816406 -1.265625 1.363281 -0.730469 C 1.910156 -0.183594 2.578125 0.0859375 3.34375 0.0859375 C 4.097656 0.0859375 4.765625 -0.183594 5.3125 -0.730469 C 5.859375 -1.265625 6.140625 -1.921875 6.140625 -2.699219 Z M 6.140625 -2.699219 "/></g></g></g><g fill="#ff8dd0" fill-opacity="1"><g transform="translate(176.10071, 322.280039)"><g><path d="M 3.660156 -4.242188 L 3.660156 -5.347656 C 3.488281 -5.421875 3.308594 -5.457031 3.125 -5.457031 C 2.515625 -5.457031 2.078125 -5.117188 1.800781 -4.460938 L 1.761719 -4.242188 L 1.761719 -5.347656 L 0.910156 -5.347656 L 0.910156 0 L 1.761719 0 L 1.761719 -2.675781 C 1.761719 -3.113281 1.859375 -3.5 2.066406 -3.855469 C 2.164062 -4.035156 2.296875 -4.195312 2.457031 -4.316406 C 2.613281 -4.4375 2.808594 -4.511719 3.027344 -4.511719 C 3.246094 -4.511719 3.453125 -4.414062 3.660156 -4.242188 Z M 3.660156 -4.242188 "/></g></g></g><g fill="#ff8dd0" fill-opacity="1"><g transform="translate(182.312996, 322.280039)"><g><path d="M 5.167969 -2.675781 C 5.167969 -2.152344 4.984375 -1.691406 4.621094 -1.3125 C 4.253906 -0.925781 3.804688 -0.730469 3.28125 -0.730469 C 2.746094 -0.730469 2.296875 -0.925781 1.933594 -1.3125 C 1.566406 -1.691406 1.398438 -2.152344 1.398438 -2.675781 C 1.398438 -3.183594 1.566406 -3.648438 1.933594 -4.035156 C 2.296875 -4.425781 2.746094 -4.621094 3.28125 -4.621094 C 3.804688 -4.621094 4.253906 -4.425781 4.621094 -4.035156 C 4.984375 -3.648438 5.167969 -3.183594 5.167969 -2.675781 Z M 6.019531 0 L 6.019531 -9.117188 L 5.167969 -9.117188 L 5.167969 -4.425781 C 5.117188 -4.5 5.058594 -4.558594 5.007812 -4.621094 C 4.5 -5.179688 3.878906 -5.472656 3.148438 -5.472656 C 2.40625 -5.472656 1.789062 -5.179688 1.277344 -4.621094 C 0.789062 -4.058594 0.546875 -3.417969 0.546875 -2.675781 C 0.546875 -1.921875 0.789062 -1.277344 1.277344 -0.730469 C 1.789062 -0.15625 2.40625 0.121094 3.148438 0.121094 C 3.878906 0.121094 4.5 -0.15625 5.007812 -0.730469 C 5.058594 -0.777344 5.117188 -0.839844 5.167969 -0.910156 L 5.167969 0 Z M 6.019531 0 "/></g></g></g><g fill="#ff8dd0" fill-opacity="1"><g transform="translate(191.673699, 322.280039)"><g><path d="M 1.617188 0.121094 C 1.800781 0.121094 1.96875 0.0625 2.117188 -0.0742188 C 2.261719 -0.207031 2.335938 -0.363281 2.335938 -0.558594 C 2.335938 -0.753906 2.261719 -0.910156 2.117188 -1.046875 C 1.96875 -1.179688 1.8125 -1.253906 1.617188 -1.253906 C 1.421875 -1.253906 1.253906 -1.179688 1.117188 -1.046875 C 0.972656 -0.898438 0.910156 -0.742188 0.910156 -0.558594 C 0.910156 -0.363281 0.972656 -0.207031 1.117188 -0.0742188 C 1.265625 0.0625 1.421875 0.121094 1.617188 0.121094 Z M 1.617188 0.121094 "/></g></g></g><g fill="#ff8dd0" fill-opacity="1"><g transform="translate(197.351119, 322.280039)"><g><path d="M 5.238281 -2.675781 C 5.238281 -2.152344 5.058594 -1.691406 4.691406 -1.3125 C 4.328125 -0.925781 3.878906 -0.730469 3.355469 -0.730469 C 2.832031 -0.730469 2.382812 -0.925781 2.019531 -1.3125 C 1.652344 -1.691406 1.472656 -2.140625 1.472656 -2.675781 C 1.472656 -3.199219 1.652344 -3.648438 2.019531 -4.035156 C 2.382812 -4.425781 2.832031 -4.621094 3.355469 -4.621094 C 3.878906 -4.621094 4.328125 -4.425781 4.691406 -4.035156 C 5.058594 -3.648438 5.238281 -3.183594 5.238281 -2.675781 Z M 1.445312 0.730469 L 0.570312 0.730469 C 0.667969 1.300781 0.925781 1.800781 1.363281 2.226562 C 1.898438 2.773438 2.554688 3.039062 3.320312 3.039062 C 4.074219 3.039062 4.730469 2.773438 5.277344 2.226562 C 5.8125 1.691406 6.089844 1.035156 6.089844 0.265625 L 6.089844 -5.347656 L 5.238281 -5.347656 L 5.238281 -4.449219 C 5.191406 -4.5 5.140625 -4.558594 5.09375 -4.621094 C 4.558594 -5.179688 3.9375 -5.472656 3.234375 -5.472656 C 2.480469 -5.472656 1.859375 -5.179688 1.347656 -4.621094 C 0.863281 -4.058594 0.621094 -3.417969 0.621094 -2.675781 C 0.621094 -1.921875 0.863281 -1.277344 1.347656 -0.730469 C 1.859375 -0.15625 2.480469 0.121094 3.234375 0.121094 C 3.964844 0.121094 4.582031 -0.15625 5.09375 -0.730469 C 5.140625 -0.777344 5.191406 -0.839844 5.238281 -0.886719 L 5.238281 0.265625 C 5.238281 0.800781 5.046875 1.253906 4.667969 1.628906 C 4.292969 2.007812 3.839844 2.1875 3.320312 2.1875 C 2.785156 2.1875 2.335938 2.007812 1.957031 1.628906 C 1.691406 1.363281 1.519531 1.070312 1.445312 0.730469 Z M 1.445312 0.730469 "/></g></g></g><g fill="#ff8dd0" fill-opacity="1"><g transform="translate(206.784759, 322.280039)"><g><path d="M 5.238281 -2.675781 C 5.238281 -2.152344 5.058594 -1.691406 4.691406 -1.3125 C 4.328125 -0.925781 3.878906 -0.730469 3.355469 -0.730469 C 2.832031 -0.730469 2.382812 -0.925781 2.019531 -1.3125 C 1.652344 -1.691406 1.472656 -2.140625 1.472656 -2.675781 C 1.472656 -3.199219 1.652344 -3.648438 2.019531 -4.035156 C 2.382812 -4.425781 2.832031 -4.621094 3.355469 -4.621094 C 3.878906 -4.621094 4.328125 -4.425781 4.691406 -4.035156 C 5.058594 -3.648438 5.238281 -3.183594 5.238281 -2.675781 Z M 1.445312 0.730469 L 0.570312 0.730469 C 0.667969 1.300781 0.925781 1.800781 1.363281 2.226562 C 1.898438 2.773438 2.554688 3.039062 3.320312 3.039062 C 4.074219 3.039062 4.730469 2.773438 5.277344 2.226562 C 5.8125 1.691406 6.089844 1.035156 6.089844 0.265625 L 6.089844 -5.347656 L 5.238281 -5.347656 L 5.238281 -4.449219 C 5.191406 -4.5 5.140625 -4.558594 5.09375 -4.621094 C 4.558594 -5.179688 3.9375 -5.472656 3.234375 -5.472656 C 2.480469 -5.472656 1.859375 -5.179688 1.347656 -4.621094 C 0.863281 -4.058594 0.621094 -3.417969 0.621094 -2.675781 C 0.621094 -1.921875 0.863281 -1.277344 1.347656 -0.730469 C 1.859375 -0.15625 2.480469 0.121094 3.234375 0.121094 C 3.964844 0.121094 4.582031 -0.15625 5.09375 -0.730469 C 5.140625 -0.777344 5.191406 -0.839844 5.238281 -0.886719 L 5.238281 0.265625 C 5.238281 0.800781 5.046875 1.253906 4.667969 1.628906 C 4.292969 2.007812 3.839844 2.1875 3.320312 2.1875 C 2.785156 2.1875 2.335938 2.007812 1.957031 1.628906 C 1.691406 1.363281 1.519531 1.070312 1.445312 0.730469 Z M 1.445312 0.730469 "/></g></g></g><g fill="#ff8dd0" fill-opacity="1"><g transform="translate(216.218399, 322.280039)"><g><path d="M 6.152344 -9.117188 L 5.238281 -9.117188 L 0.523438 2.445312 L 1.433594 2.445312 Z M 6.152344 -9.117188 "/></g></g></g><g fill="#ff8dd0" fill-opacity="1"><g transform="translate(225.190109, 322.280039)"><g><path d="M 5.167969 -2.675781 C 5.167969 -2.152344 4.984375 -1.691406 4.621094 -1.3125 C 4.253906 -0.925781 3.804688 -0.730469 3.28125 -0.730469 C 2.746094 -0.730469 2.296875 -0.925781 1.933594 -1.3125 C 1.566406 -1.691406 1.398438 -2.152344 1.398438 -2.675781 C 1.398438 -3.183594 1.566406 -3.648438 1.933594 -4.035156 C 2.296875 -4.425781 2.746094 -4.621094 3.28125 -4.621094 C 3.804688 -4.621094 4.253906 -4.425781 4.621094 -4.035156 C 4.984375 -3.648438 5.167969 -3.183594 5.167969 -2.675781 Z M 6.019531 0 L 6.019531 -9.117188 L 5.167969 -9.117188 L 5.167969 -4.425781 C 5.117188 -4.5 5.058594 -4.558594 5.007812 -4.621094 C 4.5 -5.179688 3.878906 -5.472656 3.148438 -5.472656 C 2.40625 -5.472656 1.789062 -5.179688 1.277344 -4.621094 C 0.789062 -4.058594 0.546875 -3.417969 0.546875 -2.675781 C 0.546875 -1.921875 0.789062 -1.277344 1.277344 -0.730469 C 1.789062 -0.15625 2.40625 0.121094 3.148438 0.121094 C 3.878906 0.121094 4.5 -0.15625 5.007812 -0.730469 C 5.058594 -0.777344 5.117188 -0.839844 5.167969 -0.910156 L 5.167969 0 Z M 6.019531 0 "/></g></g></g><g fill="#ff8dd0" fill-opacity="1"><g transform="translate(234.550806, 322.280039)"><g><path d="M 5.910156 -3.429688 C 5.738281 -4.023438 5.410156 -4.511719 4.9375 -4.886719 C 4.4375 -5.265625 3.890625 -5.457031 3.28125 -5.457031 C 2.515625 -5.457031 1.859375 -5.179688 1.335938 -4.632812 C 0.800781 -4.085938 0.546875 -3.429688 0.546875 -2.675781 C 0.546875 -1.910156 0.800781 -1.265625 1.335938 -0.707031 C 1.582031 -0.449219 1.859375 -0.242188 2.199219 -0.0976562 C 2.527344 0.046875 2.867188 0.121094 3.210938 0.121094 C 3.550781 0.121094 3.855469 0.0859375 4.121094 -0.0117188 C 4.972656 -0.316406 5.554688 -0.886719 5.859375 -1.75 L 4.898438 -1.75 C 4.730469 -1.445312 4.511719 -1.203125 4.21875 -1.035156 C 3.925781 -0.851562 3.621094 -0.765625 3.28125 -0.765625 C 2.757812 -0.765625 2.320312 -0.949219 1.957031 -1.324219 C 1.59375 -1.703125 1.421875 -2.152344 1.421875 -2.675781 C 1.421875 -3.171875 1.59375 -3.621094 1.957031 -4 C 2.128906 -4.171875 2.320312 -4.316406 2.554688 -4.414062 C 2.773438 -4.511719 3.050781 -4.570312 3.367188 -4.570312 C 3.683594 -4.570312 3.988281 -4.460938 4.304688 -4.253906 C 4.609375 -4.035156 4.839844 -3.769531 4.984375 -3.429688 Z M 5.910156 -3.429688 "/></g></g></g><g fill="#ff8dd0" fill-opacity="1"><g transform="translate(243.315866, 322.280039)"><g><path d="M 1.761719 0 L 1.761719 -9.117188 L 0.910156 -9.117188 L 0.910156 0 Z M 1.761719 0 "/></g></g></g></svg>