<svg xmlns="http://www.w3.org/2000/svg" xmlns:xlink="http://www.w3.org/1999/xlink" width="500" zoomAndPan="magnify" viewBox="0 0 375 374.999991" height="500" preserveAspectRatio="xMidYMid meet" version="1.0"><defs><clipPath id="999751a0a1"><path d="M 41 44.710938 L 334.222656 44.710938 L 334.222656 337.210938 L 41 337.210938 Z M 41 44.710938 " clip-rule="nonzero"/></clipPath></defs><g clip-path="url(#999751a0a1)"><path fill="#8a229b" d="M 187.390625 44.710938 C 107.515625 44.710938 41.105469 110.382812 41.078125 189.40625 C 41.050781 271.90625 105.804688 337.207031 187.648438 337.210938 C 268.367188 337.21875 333.988281 271.746094 334.082031 191.113281 C 334.175781 110.554688 268.203125 44.714844 187.390625 44.710938 Z M 305.441406 175.519531 C 305.386719 175.261719 305.359375 174.996094 305.308594 174.738281 C 304.898438 172.71875 303.113281 169.765625 304.332031 168.90625 C 306.097656 167.664062 308.5 169.953125 310.644531 170.679688 C 312.125 171.183594 313.433594 172.160156 314.890625 172.753906 C 316.992188 173.609375 318.320312 174.789062 317.308594 177.085938 C 316.902344 187.253906 315.859375 197.175781 313.617188 206.9375 C 313.414062 207.832031 312.964844 208.703125 312.933594 209.59375 C 312.875 211.222656 311.640625 211.710938 310.570312 211.683594 C 308.949219 211.644531 309.574219 210.070312 309.570312 209.195312 C 309.523438 197.804688 307.828125 186.621094 305.441406 175.519531 Z M 119.4375 292.9375 C 119.601562 292.589844 119.765625 292.246094 119.929688 291.898438 C 126.359375 292.796875 132.789062 293.699219 140.269531 294.746094 C 135.339844 296.320312 131.433594 298.171875 127.359375 298.695312 C 123.320312 299.210938 122.101562 294.890625 119.4375 292.9375 Z M 124.910156 306.828125 C 127.222656 310.472656 129.742188 313.984375 132.707031 318.347656 C 126.582031 315.976562 121.722656 313.386719 116.863281 310.792969 C 114.980469 309.792969 115.203125 308.699219 116.425781 307.402344 C 116.964844 306.828125 117.503906 306.242188 118.101562 305.734375 C 122.027344 302.382812 122.148438 302.46875 124.910156 306.828125 Z M 120.492188 290.136719 C 118.816406 289.820312 118.066406 288.933594 117.53125 287.433594 C 113.25 275.457031 110.617188 263.113281 109.226562 250.5 C 108.78125 246.4375 108.667969 242.335938 108.25 238.265625 C 108.023438 236.058594 108.527344 234.925781 110.996094 234.574219 C 116.734375 233.746094 122.472656 232.8125 128.125 231.53125 C 131.0625 230.867188 131.785156 232.296875 132.273438 234.496094 C 134.210938 243.195312 136.808594 251.707031 139.703125 260.125 C 142.988281 269.695312 146.734375 279.085938 151.335938 288.125 C 153.578125 292.527344 153.515625 292.5625 148.730469 293.457031 C 148.085938 293.578125 147.433594 293.6875 146.929688 293.777344 C 137.996094 292.675781 129.195312 291.78125 120.492188 290.136719 Z M 65.441406 172.871094 C 65.703125 179.867188 65.972656 186.859375 67.277344 193.761719 C 68.355469 199.457031 69.5 205.136719 70.566406 210.832031 C 70.722656 211.683594 71.703125 212.621094 70.828125 213.394531 C 70.050781 214.082031 69.152344 213.398438 68.3125 213.015625 C 65.679688 211.824219 63.03125 210.652344 60.347656 209.585938 C 58.019531 208.660156 57.042969 207.097656 57.648438 204.632812 C 58.320312 194.292969 59.414062 183.996094 61.6875 173.859375 C 61.804688 173.351562 62.140625 172.894531 62.261719 172.390625 C 62.550781 171.195312 63.265625 170.421875 64.484375 170.601562 C 65.785156 170.800781 65.410156 172.039062 65.441406 172.871094 Z M 67.089844 160.765625 C 66.796875 153.007812 71.09375 146.058594 74.277344 138.757812 C 74.867188 137.410156 75.691406 137.207031 77.097656 137.894531 C 88.785156 143.59375 101.222656 146.945312 113.898438 149.574219 C 114.863281 149.773438 116.933594 149.210938 116.632812 151.484375 C 116.40625 153.195312 116.238281 154.65625 113.859375 155.082031 C 102.371094 157.144531 90.867188 159.207031 79.71875 162.792969 C 76.71875 163.757812 73.59375 164.464844 70.777344 165.816406 C 67.199219 167.53125 66.761719 165.96875 67.082031 162.992188 C 67.136719 162.472656 67.089844 161.9375 67.089844 160.765625 Z M 255.394531 90.3125 C 248.878906 89.367188 242.570312 88.449219 236.257812 87.535156 C 236.269531 87.320312 236.28125 87.105469 236.292969 86.890625 C 239.773438 85.773438 243.246094 84.621094 246.742188 83.550781 C 249.585938 82.675781 253.15625 85.410156 255.394531 90.3125 Z M 249.914062 74.949219 C 247.6875 71.457031 245.277344 68.082031 242.476562 63.953125 C 248.691406 66.144531 253.738281 68.882812 258.734375 71.714844 C 259.953125 72.40625 259.835938 73.367188 258.933594 74.3125 C 258.476562 74.789062 258.066406 75.308594 257.59375 75.769531 C 253.441406 79.789062 252.933594 79.6875 249.914062 74.949219 Z M 254.226562 91.917969 C 256.113281 92.238281 256.894531 93.070312 257.496094 94.730469 C 261.964844 107.050781 264.566406 119.78125 265.9375 132.78125 C 266.335938 136.578125 266.445312 140.410156 266.839844 144.210938 C 267.042969 146.160156 266.351562 147.183594 264.457031 147.519531 C 258.226562 148.617188 251.988281 149.664062 245.78125 150.878906 C 243.21875 151.382812 243.25 149.375 242.945312 148.082031 C 240.839844 139.160156 238.226562 130.390625 235.246094 121.730469 C 231.953125 112.183594 228.199219 102.820312 223.601562 93.808594 C 221.3125 89.3125 221.457031 89.125 226.347656 88.8125 C 227.53125 88.734375 228.722656 88.703125 229.847656 88.65625 C 238.066406 89.40625 246.160156 90.546875 254.226562 91.917969 Z M 287.734375 141.050781 C 282.574219 142.644531 277.390625 144.164062 272.226562 145.730469 C 269.070312 146.6875 268.539062 145.460938 268.414062 142.910156 C 267.828125 131.15625 266.15625 119.554688 263.289062 108.144531 C 262.113281 103.460938 260.628906 98.847656 259.285156 94.203125 C 264.800781 98.226562 268.828125 103.417969 272.789062 108.652344 C 279.339844 117.308594 284.8125 126.628906 289.832031 136.246094 C 291.335938 139.125 290.722656 140.125 287.734375 141.050781 Z M 292.789062 142.695312 C 295.734375 149.679688 298.664062 156.664062 300.75 164.769531 C 290.332031 161.558594 280.65625 158.789062 270.683594 157.269531 C 269.8125 157.140625 269.300781 156.703125 268.992188 155.867188 C 267.375 151.453125 269.109375 148.070312 273.730469 146.941406 C 279.105469 145.632812 284.371094 143.980469 289.550781 142.046875 C 290.730469 141.605469 291.984375 140.789062 292.789062 142.695312 Z M 267.050781 168.289062 C 266.03125 186.769531 263.230469 204.941406 258.746094 222.878906 C 258.023438 225.765625 255.921875 226.3125 253.761719 226.167969 C 251.398438 226.011719 252.289062 223.695312 252.292969 222.335938 C 252.332031 200.832031 249.777344 179.625 245.199219 158.636719 C 244.71875 156.429688 244.855469 154.875 248.015625 155.441406 C 253.695312 156.453125 259.4375 157.132812 265.160156 157.917969 C 266.925781 158.164062 267.121094 159.289062 267.070312 160.769531 C 266.988281 163.273438 267.050781 165.78125 267.050781 168.289062 Z M 254.554688 231.261719 C 253.675781 230.972656 252.128906 231.488281 252.382812 229.773438 C 252.664062 227.917969 254.246094 227.820312 255.714844 227.753906 C 256.613281 227.710938 257.28125 227.996094 257.015625 229.179688 C 256.535156 230.207031 256.578125 231.921875 254.554688 231.261719 Z M 255.363281 234.796875 C 254.578125 236.980469 253.820312 239.171875 253.050781 241.363281 C 252.785156 241.347656 252.519531 241.328125 252.257812 241.3125 C 252.257812 238.960938 252.257812 236.609375 252.257812 234.261719 C 252.253906 233.03125 252.816406 232.660156 254.003906 233.007812 C 254.949219 233.28125 255.839844 233.464844 255.363281 234.796875 Z M 199.722656 226.238281 C 196.914062 226.320312 197.34375 224.320312 197.449219 222.683594 C 198.125 212.136719 198.269531 201.578125 198.992188 191.015625 C 198.992188 180.453125 199.054688 169.890625 198.945312 159.332031 C 198.921875 156.988281 199.546875 156.261719 202.011719 156.09375 C 212.023438 155.417969 222.09375 155.480469 232.050781 153.976562 C 232.566406 153.898438 233.105469 153.945312 233.636719 153.9375 C 241.816406 153.820312 242.371094 154.128906 244.042969 162.011719 C 246.691406 174.472656 248.222656 187.089844 249.421875 199.785156 C 250.15625 207.546875 249.605469 215.359375 250.8125 223.066406 C 251.289062 226.101562 249.8125 226.761719 247.121094 227.195312 C 231.246094 229.753906 215.53125 225.785156 199.722656 226.238281 Z M 220.667969 228.738281 C 213.703125 229.742188 206.769531 230.636719 199.765625 230.292969 C 198.8125 230.246094 197.429688 230.671875 197.480469 228.957031 C 197.519531 227.597656 198.640625 227.707031 199.523438 227.746094 C 206.574219 228.054688 213.621094 228.402344 220.667969 228.738281 Z M 196.039062 222.96875 C 196.085938 225.410156 195.140625 226.191406 192.738281 226.066406 C 188.910156 225.863281 185.058594 225.78125 181.234375 225.992188 C 178.484375 226.144531 177.546875 225.359375 177.589844 222.503906 C 177.742188 211.933594 179.199219 169.664062 179.09375 159.089844 C 179.070312 156.8125 179.820312 156.101562 182.050781 156.199219 C 185.75 156.363281 189.476562 156.472656 193.164062 156.203125 C 196.4375 155.96875 197.542969 156.945312 197.390625 160.34375 C 196.632812 177.242188 197.203125 194.175781 196.210938 211.078125 C 195.976562 215.03125 195.960938 219.007812 196.039062 222.96875 Z M 172.589844 226.28125 C 160.964844 226.65625 149.347656 227.289062 137.738281 227.964844 C 133.671875 228.199219 132.175781 226.507812 131.335938 222.527344 C 127.1875 202.757812 125.378906 182.75 124.359375 162.636719 C 123.980469 155.128906 124.117188 155.609375 131.511719 154.582031 C 139.105469 153.523438 146.53125 154.425781 154.027344 154.824219 C 160.292969 155.152344 167.882812 155.78125 174.382812 156.089844 C 175.414062 156.140625 176.21875 156.988281 176.21875 158.019531 L 176.21875 222.257812 C 176.257812 225.035156 175.699219 226.183594 172.589844 226.28125 Z M 173.882812 230.285156 C 167.242188 230 160.601562 229.667969 153.960938 229.347656 C 153.960938 229.113281 153.960938 228.882812 153.960938 228.648438 C 160.625 228.34375 167.289062 228.019531 173.957031 227.75 C 174.796875 227.714844 175.949219 227.476562 176.054688 228.855469 C 176.183594 230.53125 174.863281 230.324219 173.882812 230.285156 Z M 107.757812 228.757812 C 107.535156 227.445312 107.210938 225.683594 109.726562 226.078125 C 114.117188 226.765625 118.523438 227.34375 122.921875 227.972656 C 124.851562 228.25 126.777344 228.539062 128.703125 228.824219 C 128.746094 229.0625 128.785156 229.304688 128.828125 229.542969 C 122.324219 230.785156 115.855469 232.367188 109.292969 233.105469 C 106.734375 233.390625 108.019531 230.3125 107.757812 228.757812 Z M 126.441406 226.667969 C 121.203125 225.476562 115.835938 224.792969 110.488281 224.199219 C 107.875 223.914062 107.605469 222.675781 107.871094 220.546875 C 108.171875 218.191406 108.242188 215.808594 108.414062 213.4375 C 109 195.058594 111.878906 177.019531 116.316406 159.1875 C 117.015625 156.371094 118.710938 156.042969 120.894531 156.179688 C 123.40625 156.339844 122.539062 158.53125 122.675781 159.832031 C 123.390625 166.652344 122.984375 173.511719 123.5625 180.375 C 124.773438 194.796875 126.710938 209.082031 129.707031 223.21875 C 130.398438 226.464844 130.203125 227.523438 126.441406 226.667969 Z M 121.367188 149.289062 C 119.855469 149.113281 119.296875 148.347656 119.824219 146.878906 C 120.597656 144.726562 121.367188 142.570312 122.136719 140.417969 C 122.398438 140.488281 122.65625 140.558594 122.917969 140.628906 C 122.917969 142.835938 122.929688 145.046875 122.910156 147.257812 C 122.898438 148.289062 123.046875 149.488281 121.367188 149.289062 Z M 120.371094 150.75 C 121.515625 150.867188 122.480469 151.070312 122.4375 152.507812 C 122.378906 154.304688 121.0625 154.140625 119.878906 154.140625 C 118.988281 154.140625 117.828125 154.359375 118.082031 152.859375 C 118.289062 151.636719 118.765625 150.585938 120.371094 150.75 Z M 175.320312 154.234375 C 168.21875 154.394531 161.164062 153.683594 154.109375 152.742188 C 161.234375 152.6875 168.285156 151.84375 175.371094 151.585938 C 176.332031 151.550781 177.695312 151.25 177.664062 152.921875 C 177.628906 154.558594 176.296875 154.214844 175.320312 154.234375 Z M 193.921875 230.300781 C 191.417969 230.308594 188.910156 230.304688 186.40625 230.304688 C 186.40625 230.300781 186.40625 230.292969 186.40625 230.289062 C 184.035156 230.289062 181.660156 230.304688 179.289062 230.277344 C 178.464844 230.269531 177.6875 230.082031 177.691406 229.003906 C 177.695312 227.933594 178.464844 227.722656 179.292969 227.71875 C 184.167969 227.699219 189.046875 227.703125 193.921875 227.722656 C 194.746094 227.726562 195.554688 227.894531 195.519531 228.976562 C 195.484375 229.964844 194.804688 230.296875 193.921875 230.300781 Z M 195.3125 235.183594 C 194.597656 247.695312 194.003906 260.214844 193.28125 272.726562 C 192.984375 277.863281 192.386719 282.976562 192.117188 288.113281 C 192.019531 289.9375 191.53125 290.777344 189.605469 290.621094 C 188.160156 290.503906 186.695312 290.601562 185.242188 290.601562 C 178.5625 290.601562 178.480469 290.605469 178.394531 283.742188 C 178.300781 276.085938 177.664062 244.140625 177.546875 235.828125 C 177.511719 233.386719 178.015625 232.21875 180.78125 232.378906 C 184.734375 232.609375 188.714844 232.550781 192.675781 232.421875 C 194.804688 232.355469 195.429688 233.148438 195.3125 235.183594 Z M 181.195312 151.582031 C 183.699219 151.570312 186.203125 151.578125 188.710938 151.578125 C 188.710938 151.574219 188.710938 151.566406 188.710938 151.5625 C 190.820312 151.5625 192.929688 151.527344 195.039062 151.578125 C 196.015625 151.601562 197.324219 151.308594 197.28125 152.980469 C 197.25 154.238281 196.292969 154.375 195.339844 154.445312 C 190.59375 154.792969 185.851562 154.703125 181.113281 154.351562 C 180.324219 154.292969 179.488281 154.191406 179.421875 153.125 C 179.339844 151.859375 180.179688 151.585938 181.195312 151.582031 Z M 199.113281 152.753906 C 199.246094 151.371094 200.382812 151.550781 201.222656 151.671875 C 207.214844 152.527344 213.269531 152.285156 219.253906 152.777344 C 213.28125 154.574219 207.214844 153.984375 201.214844 154.285156 C 200.175781 154.339844 198.960938 154.378906 199.113281 152.753906 Z M 267.046875 155.6875 C 266.832031 157.03125 265.578125 156.0625 264.753906 155.941406 C 258.164062 154.964844 251.570312 154.003906 244.011719 152.894531 C 251.507812 151.527344 258.058594 150.320312 264.617188 149.160156 C 265.449219 149.015625 266.753906 148.546875 266.9375 149.824219 C 267.21875 151.753906 267.355469 153.78125 267.046875 155.6875 Z M 241.21875 148.441406 C 241.773438 150.605469 240.992188 151.738281 238.699219 151.726562 C 237.109375 151.714844 235.523438 151.722656 233.9375 151.722656 C 223.121094 151.238281 212.34375 149.875 201.492188 150.191406 C 199.601562 150.246094 198.949219 149.558594 198.980469 147.679688 C 199.273438 129.839844 198.480469 112.015625 198.074219 94.183594 C 198.023438 91.898438 198.839844 91.316406 201.019531 91.207031 C 206.421875 90.933594 211.824219 90.476562 217.195312 89.839844 C 218.992188 89.625 219.816406 90.183594 220.5625 91.644531 C 229.796875 109.730469 236.191406 128.835938 241.21875 148.441406 Z M 200.027344 89.824219 C 198.871094 89.992188 197.902344 89.746094 197.84375 88.265625 C 197.78125 86.703125 198.839844 86.601562 199.957031 86.660156 C 205.570312 86.9375 211.183594 87.246094 216.796875 87.542969 C 211.335938 89.5625 205.597656 89.007812 200.027344 89.824219 Z M 215.074219 85.875 C 209.664062 85.648438 204.257812 85.347656 198.851562 85.074219 C 197.886719 85.027344 197.5 84.457031 197.4375 83.542969 C 196.894531 75.429688 196.339844 67.3125 195.730469 58.339844 C 204.640625 66.050781 210.796875 74.671875 216.121094 83.964844 C 216.964844 85.445312 216.492188 85.933594 215.074219 85.875 Z M 194.351562 89.871094 C 192.644531 89.867188 190.933594 89.871094 189.226562 89.871094 C 189.226562 89.878906 189.226562 89.886719 189.226562 89.898438 C 187.914062 89.898438 186.597656 89.9375 185.285156 89.882812 C 184.417969 89.84375 183.277344 90 183.445312 88.542969 C 183.550781 87.628906 183.6875 86.578125 184.914062 86.566406 C 188.199219 86.53125 191.484375 86.558594 194.765625 86.617188 C 195.777344 86.632812 195.96875 87.394531 196.019531 88.257812 C 196.089844 89.484375 195.429688 89.871094 194.351562 89.871094 Z M 186.351562 91.578125 C 186.742188 91.640625 187.144531 91.617188 187.542969 91.621094 C 196.460938 91.695312 196.542969 91.695312 196.71875 100.894531 C 196.851562 107.894531 197.332031 138.554688 197.484375 146.875 C 197.539062 149.695312 196.339844 150.164062 193.90625 150.015625 C 190.082031 149.785156 186.238281 149.71875 182.410156 149.828125 C 180.25 149.890625 179.652344 149.101562 179.757812 147.070312 C 180.195312 138.363281 180.410156 129.644531 180.945312 120.945312 C 181.488281 112.121094 182.40625 103.316406 182.949219 94.488281 C 183.101562 91.976562 184.0625 91.214844 186.351562 91.578125 Z M 178.972656 89.851562 C 171.921875 89.382812 164.875 88.84375 157.828125 88.328125 C 157.871094 88.023438 157.914062 87.722656 157.960938 87.421875 C 164.921875 87.117188 171.882812 86.777344 178.847656 86.542969 C 179.964844 86.503906 181.667969 85.859375 181.722656 88.097656 C 181.769531 90.253906 180.203125 89.929688 178.972656 89.851562 Z M 178.582031 91.339844 C 180.398438 91.332031 181.457031 91.578125 181.289062 93.984375 C 180.070312 111.628906 178.992188 129.285156 177.9375 146.945312 C 177.820312 148.914062 177.535156 150.179688 175.105469 150.136719 C 163.726562 149.929688 152.394531 150.765625 142.957031 151.699219 C 136.144531 151.925781 131.386719 150.570312 126.523438 150.160156 C 123.699219 149.921875 124.761719 147.957031 124.640625 146.34375 C 123.230469 127.78125 133.488281 113.261719 141.175781 97.777344 C 144.691406 90.691406 148.816406 87.210938 157.296875 89.503906 C 164.132812 91.347656 171.425781 91.355469 178.582031 91.339844 Z M 127.113281 121.421875 C 126.214844 116.9375 127.71875 112.625 128.4375 108.332031 C 129.320312 103.066406 131.011719 97.9375 132.164062 92.710938 C 132.640625 90.558594 133.558594 89.5625 135.851562 89.589844 C 138.589844 89.621094 141.269531 88.390625 144.703125 89.175781 C 137.945312 99.785156 132.328125 110.4375 127.113281 121.421875 Z M 133.84375 81.832031 C 133.269531 83.117188 132.132812 82.894531 131.132812 82.492188 C 128.726562 81.523438 126.121094 80.964844 123.828125 79.148438 C 128.460938 75.527344 133.15625 72.269531 139.367188 69.191406 C 137.222656 74.109375 135.5625 77.984375 133.84375 81.832031 Z M 123.855469 81.28125 C 125.75 82.195312 127.75 82.882812 129.671875 83.734375 C 130.777344 84.222656 132.605469 84.054688 132.355469 85.996094 C 132.125 87.796875 130.816406 88.566406 129.082031 88.84375 C 123.882812 89.683594 118.703125 90.628906 113.496094 91.433594 C 112.109375 91.648438 110.832031 92.746094 108.636719 91.691406 C 112.679688 88.191406 116.421875 84.925781 120.191406 81.691406 C 121.289062 80.75 122.472656 80.613281 123.855469 81.28125 Z M 129.570312 90.488281 C 129.917969 90.453125 130.292969 90.699219 130.785156 90.851562 C 127.046875 103.640625 125.050781 116.660156 123.5 129.824219 C 122.804688 135.707031 119.949219 141.335938 118.074219 147.082031 C 117.65625 148.367188 116.835938 148.453125 115.589844 148.199219 C 102.90625 145.613281 90.40625 142.476562 78.640625 136.863281 C 76.492188 135.839844 76.101562 135.050781 77.296875 132.855469 C 84.59375 119.476562 93.621094 107.382812 104.027344 96.289062 C 104.644531 95.632812 105.417969 94.882812 106.238281 94.695312 C 113.953125 92.957031 121.6875 91.3125 129.570312 90.488281 Z M 77.882812 127.933594 C 77.101562 129.296875 76.386719 130.707031 75.546875 132.035156 C 75.003906 132.886719 75.03125 134.585938 73.183594 133.796875 C 71.648438 133.136719 71.421875 132.011719 71.855469 130.570312 C 72.769531 127.554688 73.621094 124.519531 74.597656 121.523438 C 75.292969 119.402344 76.363281 117.386719 76.894531 115.230469 C 79.976562 102.738281 88.761719 97.523438 101.320312 96.453125 C 92.058594 106.179688 84.382812 116.625 77.882812 127.933594 Z M 72.046875 135.171875 C 72.832031 135.507812 73.726562 135.824219 72.992188 137.105469 C 71.941406 138.949219 71.410156 141.085938 69.804688 142.851562 C 68.890625 140.378906 70.320312 138.378906 70.4375 136.246094 C 70.484375 135.410156 71.082031 134.761719 72.046875 135.171875 Z M 67.0625 172.277344 C 67.050781 170.6875 66.867188 169.164062 68.851562 168.402344 C 83.105469 162.925781 97.941406 159.761719 112.992188 157.132812 C 114.832031 156.910156 115.179688 157.761719 114.707031 159.476562 C 110.910156 173.214844 108.742188 187.253906 107.34375 201.410156 C 106.722656 207.703125 106.53125 214.046875 106.308594 220.375 C 106.230469 222.527344 105.832031 223.515625 103.359375 222.988281 C 94.253906 221.042969 85.214844 218.875 76.332031 216.050781 C 74.414062 215.441406 73.191406 214.546875 72.679688 212.476562 C 69.402344 199.269531 67.171875 185.925781 67.0625 172.277344 Z M 103.871094 224.792969 C 106.972656 225.28125 106.300781 227.738281 106.191406 229.695312 C 106.089844 231.53125 107.265625 233.738281 103.875 234.550781 C 97.617188 236.050781 91.496094 238.132812 85.367188 240.132812 C 83.890625 240.613281 82.886719 240.847656 82.171875 239.199219 C 79.160156 232.246094 76.351562 225.21875 74.253906 217.390625 C 84.320312 220.421875 93.949219 223.21875 103.871094 224.792969 Z M 91.191406 239.742188 C 94.953125 238.558594 98.796875 237.632812 102.554688 236.445312 C 105.171875 235.617188 106.363281 235.742188 106.570312 239.136719 C 107.417969 253.074219 109.441406 266.855469 113.457031 280.28125 C 114.273438 283.011719 115.164062 285.722656 116.019531 288.441406 C 103.886719 276.96875 94.585938 263.789062 87.101562 249.332031 C 83.425781 242.238281 83.5 242.15625 91.191406 239.742188 Z M 133.878906 233.964844 C 133.316406 231.789062 133.558594 230.949219 136.117188 230.441406 C 141.476562 229.378906 146.703125 230.625 151.878906 231.09375 C 158.992188 231.738281 166.128906 231.328125 173.226562 232.222656 C 175.722656 232.535156 176.230469 233.296875 176.203125 235.554688 C 176.097656 244.265625 176.886719 278.839844 177.007812 287.410156 C 177.039062 289.65625 176.679688 290.671875 174.089844 290.78125 C 169.085938 290.992188 164.089844 291.574219 159.113281 292.183594 C 156.535156 292.5 155.109375 291.707031 153.898438 289.292969 C 145.023438 271.636719 138.8125 253.039062 133.878906 233.964844 Z M 175.199219 292.449219 C 176.304688 292.382812 176.992188 292.683594 177.066406 293.886719 C 177.15625 295.226562 176.265625 295.398438 175.269531 295.355469 C 169.496094 295.097656 163.71875 294.816406 157.945312 294.542969 C 163.648438 292.890625 169.4375 292.800781 175.199219 292.449219 Z M 175.355469 296.9375 C 176.742188 296.941406 177.574219 297.550781 177.675781 299.03125 C 178.199219 306.78125 178.75 314.527344 179.265625 322.273438 C 179.277344 322.457031 179.019531 322.660156 178.589844 323.285156 C 170.007812 315.675781 163.558594 306.621094 158.339844 296.933594 C 164.105469 296.933594 169.730469 296.929688 175.355469 296.9375 Z M 180.625 292.1875 C 183.761719 292.121094 186.898438 292.097656 190.035156 292.082031 C 190.949219 292.078125 191.523438 292.515625 191.476562 293.503906 C 191.429688 294.457031 191.277344 295.394531 190.039062 295.425781 C 188.46875 295.46875 186.898438 295.4375 185.332031 295.4375 C 185.332031 295.421875 185.332031 295.410156 185.332031 295.398438 C 183.890625 295.398438 182.453125 295.40625 181.015625 295.394531 C 180.066406 295.386719 179.148438 295.324219 179.109375 294.019531 C 179.078125 292.949219 179.484375 292.210938 180.625 292.1875 Z M 192.613281 299.554688 C 192.753906 297.839844 193.464844 297.292969 195.050781 297.230469 C 205.050781 296.835938 215.046875 296.394531 226.125 295.921875 C 216.09375 309.460938 205.421875 320.707031 191.121094 328.035156 C 190.464844 328.371094 189.695312 329.105469 189.042969 328.355469 C 188.726562 327.996094 188.890625 327.117188 189.007812 326.507812 C 190.75 317.59375 191.875 308.597656 192.613281 299.554688 Z M 193.40625 293.878906 C 193.484375 292.125 194.699219 292.128906 195.921875 292.222656 C 201.042969 292.605469 206.164062 293.027344 211.289062 293.429688 C 212.84375 293.550781 214.40625 293.644531 215.964844 293.75 C 209.207031 295.589844 202.363281 295.355469 195.539062 295.410156 C 194.496094 295.417969 193.335938 295.523438 193.40625 293.878906 Z M 224.761719 293.46875 C 215.660156 291.761719 206.429688 290.972656 197.191406 290.71875 C 193.769531 290.628906 193.605469 289.570312 193.835938 286.589844 C 194.945312 272.378906 195.726562 258.144531 196.609375 243.917969 C 196.699219 242.46875 196.644531 241.011719 196.714844 239.5625 C 197.039062 232.664062 197.066406 232.882812 203.753906 232.285156 C 213.75 231.394531 223.789062 231.40625 233.789062 230.375 C 238.640625 229.875 243.710938 231.402344 248.671875 232.066406 C 250.203125 232.269531 250.355469 233.363281 250.285156 234.714844 C 250.171875 236.953125 250.253906 239.199219 250.253906 241.445312 C 250.957031 247.585938 249.050781 253.113281 246.628906 258.640625 C 241.644531 270.011719 236.082031 281.054688 229.257812 291.449219 C 228.109375 293.203125 227.035156 293.894531 224.761719 293.46875 Z M 248.039062 260.457031 C 248.859375 264.980469 247.335938 269.300781 246.648438 273.625 C 245.851562 278.640625 244.105469 283.5 243.125 288.5 C 242.578125 291.304688 241.265625 292.554688 238.488281 292.703125 C 235.867188 292.847656 233.253906 293.214844 229.910156 293.554688 C 236.996094 282.640625 242.710938 271.707031 248.039062 260.457031 Z M 244.71875 299.894531 C 246.804688 300.898438 250.28125 301.019531 250.660156 302.964844 C 250.984375 304.640625 247.617188 305.777344 245.808594 307.015625 C 242.71875 309.125 239.460938 310.996094 236.269531 312.96875 C 236.121094 312.753906 235.96875 312.539062 235.820312 312.324219 C 237.425781 308.734375 239.1875 305.203125 240.578125 301.53125 C 241.464844 299.1875 242.667969 298.910156 244.71875 299.894531 Z M 245.289062 298.382812 C 244.257812 297.890625 242.40625 298.113281 242.738281 296.0625 C 243.039062 294.210938 244.183594 293.664062 245.996094 293.382812 C 252.742188 292.34375 259.453125 291.074219 266.179688 289.890625 C 266.328125 290.082031 266.480469 290.273438 266.628906 290.464844 C 262.53125 293.941406 258.417969 297.402344 254.34375 300.90625 C 253.347656 301.765625 252.492188 301.4375 251.46875 300.972656 C 249.433594 300.054688 247.304688 299.339844 245.289062 298.382812 Z M 244.191406 291.757812 C 248.046875 278.179688 250.09375 264.898438 251.679688 251.480469 C 252.332031 245.992188 255.171875 240.769531 256.882812 235.386719 C 257.488281 233.476562 258.839844 233.84375 260.054688 234.082031 C 272.617188 236.578125 284.945312 239.835938 296.601562 245.300781 C 298.699219 246.285156 298.859375 247.332031 297.796875 249.269531 C 290.484375 262.625 281.582031 274.804688 271.0625 285.808594 C 270.34375 286.558594 269.652344 287.253906 268.5 287.511719 C 260.675781 289.261719 252.84375 290.917969 244.191406 291.757812 Z M 292.394531 261.8125 C 294.824219 257.90625 297.109375 253.90625 299.472656 249.957031 C 300.042969 249.007812 300.320312 247.542969 302.027344 248.414062 C 303.320312 249.070312 303.589844 250.148438 303.25 251.410156 C 300.640625 261.109375 297.097656 270.441406 292.214844 279.246094 C 291.738281 280.105469 291.03125 280.671875 290.15625 280.996094 C 285.121094 282.855469 280.074219 284.691406 274.550781 285.484375 C 280.910156 277.816406 287.171875 270.203125 292.394531 261.8125 Z M 303.007812 246.996094 C 302.121094 246.621094 301.4375 246.144531 302.082031 244.9375 C 303.101562 243.039062 303.980469 241.066406 305.355469 238.222656 C 305.96875 241.625 304.851562 243.679688 304.601562 245.847656 C 304.523438 246.539062 304.082031 247.453125 303.007812 246.996094 Z M 300.683594 243.613281 C 299.988281 245.042969 299.042969 244.78125 297.800781 244.167969 C 286.117188 238.429688 273.664062 235.117188 260.957031 232.601562 C 259.816406 232.375 258.0625 232.5 258.476562 230.386719 C 258.746094 229 258.636719 227.277344 260.546875 227.003906 C 276.667969 224.675781 292.421875 220.867188 307.746094 215.214844 C 309.359375 225.855469 305.003906 234.730469 300.683594 243.613281 Z M 302.957031 215.027344 C 290.269531 219.390625 277.222656 222.253906 264.070312 224.699219 C 259.855469 225.484375 259.792969 225.273438 260.835938 221.128906 C 265.691406 201.875 268.121094 182.289062 268.753906 162.476562 C 268.84375 159.738281 269.070312 158.671875 272.378906 159.355469 C 281.378906 161.214844 290.257812 163.433594 299.011719 166.222656 C 300.90625 166.824219 301.875 167.816406 302.34375 169.613281 C 305.578125 182.03125 307.390625 194.660156 308.117188 208.28125 C 309.359375 212.007812 306.835938 213.695312 302.957031 215.027344 Z M 319.007812 175.710938 C 326.867188 178.589844 332.0625 185.554688 331.925781 192.480469 C 331.851562 196.09375 329.816406 198.585938 327.53125 200.996094 C 324.066406 204.644531 319.910156 207.28125 314.953125 209.691406 C 317.234375 198.171875 319.375 187.132812 319.007812 175.710938 Z M 313.265625 125.285156 C 323.445312 142.855469 329.519531 161.402344 330.894531 181.511719 C 327.4375 178.574219 324.097656 175.820312 320.335938 173.65625 C 318.835938 172.792969 318.96875 171.570312 318.988281 170.273438 C 319.222656 156.464844 316.625 143.101562 312.609375 129.964844 C 312.011719 128.007812 312.039062 128 313.265625 125.285156 Z M 316.816406 161.734375 C 316.964844 164.101562 317.140625 166.46875 317.269531 168.335938 C 317.894531 171.476562 316.910156 171.949219 314.71875 170.640625 C 314.605469 170.574219 314.492188 170.488281 314.371094 170.457031 C 305.699219 168.140625 300.363281 162.976562 298.898438 153.769531 C 298.335938 150.222656 296.460938 146.832031 294.863281 143.523438 C 293.777344 141.277344 293.894531 140.136719 296.394531 139.097656 C 300.78125 137.273438 304.84375 134.78125 308.367188 131.566406 C 310.105469 129.980469 310.695312 130.109375 311.398438 132.460938 C 314.265625 142.035156 316.191406 151.757812 316.816406 161.734375 Z M 311.363281 118.839844 C 309.578125 116.257812 307.796875 113.675781 306.015625 111.09375 C 309.300781 112.644531 311.058594 115.253906 311.363281 118.839844 Z M 297.382812 96.964844 C 299.675781 99.832031 301.964844 102.699219 304.253906 105.570312 C 299.773438 104.433594 299.328125 100.105469 296.253906 97.859375 C 296.628906 97.5625 297.007812 97.261719 297.382812 96.964844 Z M 301.804688 109.4375 C 304.390625 114.609375 306.882812 119.800781 308.984375 125.195312 C 309.738281 127.128906 309.523438 128.355469 308.074219 129.707031 C 304.160156 133.355469 299.539062 135.855469 294.777344 138.164062 C 292.433594 139.296875 292.113281 137.367188 291.472656 136.058594 C 286.046875 125.019531 279.597656 114.613281 272.019531 104.925781 C 269.1875 101.308594 266.183594 97.832031 262.636719 93.535156 C 274.757812 96.125 285.617188 99.121094 295.941406 103.902344 C 298.578125 105.121094 300.496094 106.816406 301.804688 109.4375 Z M 292.460938 97.78125 C 293.4375 98.792969 294.339844 99.871094 295.277344 100.917969 C 285.4375 97.535156 275.695312 94.363281 265.648438 92.574219 C 259.621094 91.503906 256.476562 88.183594 254.296875 83.011719 C 253.578125 81.3125 253.699219 80.378906 255.324219 79.511719 C 256.359375 78.960938 257.648438 78.367188 258.164062 77.429688 C 261.175781 71.9375 264.28125 74.859375 267.570312 77.054688 C 276.601562 83.089844 284.917969 89.972656 292.460938 97.78125 Z M 262.003906 67.835938 C 268.832031 70.398438 284.859375 84.21875 288.941406 91.167969 C 287.632812 91.144531 287.089844 90.199219 286.414062 89.59375 C 279.617188 83.535156 272.4375 77.972656 264.613281 73.304688 C 262.347656 71.953125 261.457031 70.347656 262.003906 67.835938 Z M 260.128906 69.84375 C 251.75 64.78125 241.445312 63.351562 234.332031 55.957031 C 243.882812 58.855469 254.355469 60.023438 260.128906 69.84375 Z M 232.234375 57.652344 C 225.703125 56.160156 219.347656 54.308594 212.921875 52.714844 C 219.625 53.398438 226.738281 52.371094 232.234375 57.652344 Z M 236.910156 61.816406 C 242.078125 64.160156 244.71875 69.898438 247.789062 74.660156 C 248.867188 76.335938 251.425781 78.871094 250.1875 79.898438 C 248.097656 81.632812 246.429688 78.488281 244.820312 77.234375 C 232.527344 67.660156 219.230469 59.957031 204.429688 54.945312 C 203.460938 54.617188 202.523438 54.199219 201.570312 53.824219 C 213.863281 54.589844 225.832031 56.796875 236.910156 61.816406 Z M 247.464844 81.574219 C 238.429688 84.359375 230.371094 87.855469 221.261719 86.136719 C 219.75 85.851562 218.882812 85.136719 218.230469 83.96875 C 212.195312 73.207031 205.089844 63.3125 195.410156 55.457031 C 195.179688 55.269531 195.222656 54.746094 195.027344 53.867188 C 214.679688 58.890625 231.535156 68.386719 247.464844 81.574219 Z M 188.964844 53.5625 C 191.023438 53.890625 193.414062 55.222656 193.671875 58.144531 C 194.15625 63.636719 194.738281 69.117188 195.253906 74.605469 C 195.390625 76.042969 195.378906 77.5 195.539062 78.933594 C 196.222656 85.144531 196.234375 85.144531 190.195312 85.050781 C 183.660156 84.949219 183.65625 84.949219 184.503906 78.457031 C 185.425781 71.433594 186.230469 64.390625 187.375 57.402344 C 187.589844 56.09375 187.214844 53.28125 188.964844 53.5625 Z M 182.480469 82.527344 C 182.324219 84.964844 180.839844 85.152344 178.957031 85.109375 C 169.175781 84.882812 159.441406 85.765625 148.859375 86.472656 C 158.949219 72.296875 170.425781 60.625 186.515625 52.773438 C 184.59375 63.226562 183.101562 72.824219 182.480469 82.527344 Z M 179.441406 54.160156 C 175.347656 57.25 171.503906 59.964844 167.871094 62.933594 C 160.664062 68.832031 154.457031 75.722656 149.125 83.324219 C 147.238281 86.015625 145.324219 86.34375 142.453125 85.613281 C 134.863281 83.683594 135.023438 83.832031 137.945312 76.5625 C 140.796875 69.472656 145.351562 64.695312 152.765625 62.03125 C 160.90625 59.109375 169.039062 56.234375 177.410156 54.0625 C 177.886719 53.9375 178.441406 54.101562 179.441406 54.160156 Z M 156.457031 54.710938 C 161.007812 54.265625 165.46875 52.917969 170.113281 53.488281 C 163.175781 56.332031 155.914062 58.039062 149.484375 61.863281 C 149.035156 62.132812 148.035156 62.078125 147.675781 61.75 C 147.082031 61.210938 147.71875 60.5625 148.128906 60.097656 C 150.390625 57.523438 152.640625 55.085938 156.457031 54.710938 Z M 148.902344 54.335938 C 138.722656 57.234375 128.792969 60.828125 119.054688 64.902344 C 127.929688 58.21875 138.214844 55.691406 148.902344 54.335938 Z M 118.242188 67.699219 C 127.472656 63.21875 136.949219 59.46875 147.160156 57.347656 C 144.785156 61.359375 142.589844 65.222656 138.128906 67.410156 C 133.078125 69.886719 128.410156 73.136719 123.882812 76.535156 C 121.320312 78.460938 118.476562 77.277344 116.09375 73.484375 C 114.265625 70.574219 115.476562 69.039062 118.242188 67.699219 Z M 113.097656 70.730469 C 113.988281 73.71875 115.664062 76.191406 118.222656 77.96875 C 119.472656 78.835938 119.757812 79.433594 118.40625 80.589844 C 113.714844 84.621094 109.164062 88.820312 104.488281 92.867188 C 102.628906 94.480469 100.066406 94.402344 97.84375 95.136719 C 93.902344 96.441406 89.902344 97.566406 84.988281 99.046875 C 92.632812 87.042969 100.1875 76.40625 113.097656 70.730469 Z M 91.347656 86.101562 C 85.980469 92.496094 84.148438 102.339844 73.078125 104.082031 C 78.785156 97.007812 84.621094 91.109375 91.347656 86.101562 Z M 68.398438 110.4375 C 71.648438 107.382812 75.523438 105.132812 80.671875 103.21875 C 76.183594 112.117188 72.875 120.414062 70.5625 129.066406 C 69.898438 131.535156 69.046875 130.921875 67.667969 129.757812 C 61.117188 124.226562 61.269531 117.132812 68.398438 110.4375 Z M 60.757812 121.941406 C 62.523438 126.652344 65.132812 129.980469 68.558594 132.671875 C 69.714844 133.582031 69.027344 134.945312 68.835938 136.039062 C 66.992188 146.617188 65.191406 157.207031 61.492188 167.351562 C 60.96875 168.789062 60.480469 170.097656 58.824219 170.9375 C 53.195312 173.792969 47.875 177.148438 43.195312 183.097656 C 44.488281 160.925781 49.96875 141.160156 60.757812 121.941406 Z M 43.390625 188.601562 C 44.988281 179.847656 52.8125 176.757812 59.898438 172.296875 C 58.835938 178.585938 57.710938 184.066406 57.027344 189.601562 C 56.355469 195.050781 56.125 200.554688 55.640625 206.820312 C 48.464844 202.203125 41.714844 197.804688 43.390625 188.601562 Z M 62.0625 255.710938 C 60.765625 256.296875 60.625 254.835938 60.25 254.152344 C 51 237.324219 45.265625 219.417969 43.59375 199.117188 C 47.085938 203.171875 50.300781 205.863281 53.960938 207.96875 C 55.449219 208.824219 55.796875 210.097656 55.820312 211.613281 C 56.066406 225.71875 58.351562 239.492188 62.582031 252.949219 C 62.90625 253.984375 63.265625 255.164062 62.0625 255.710938 Z M 63.765625 249.847656 C 60.929688 240.417969 58.835938 230.867188 58.410156 221.023438 C 58.261719 217.613281 56.96875 214.277344 57.808594 210.566406 C 62.210938 212.410156 66.292969 214.160156 70.417969 215.8125 C 71.800781 216.367188 72.460938 217.359375 72.847656 218.6875 C 74.871094 225.640625 77.363281 232.433594 80.351562 239.019531 C 81.28125 241.078125 80.945312 242.039062 78.933594 242.90625 C 74.429688 244.84375 70.214844 247.296875 66.554688 250.597656 C 65.175781 251.839844 64.496094 252.277344 63.765625 249.847656 Z M 74.011719 273.941406 C 70.765625 268.398438 68.359375 262.472656 65.964844 256.535156 C 65.304688 254.898438 65.632812 253.789062 66.78125 252.65625 C 70.699219 248.800781 75.460938 246.269531 80.375 243.960938 C 82.808594 242.820312 83.003906 244.960938 83.621094 246.207031 C 89.445312 257.933594 96.363281 268.964844 104.578125 279.171875 C 106.871094 282.023438 109.257812 284.804688 112.390625 288.5625 C 99.335938 285.804688 87.734375 282.582031 76.84375 277.097656 C 75.414062 276.378906 74.730469 275.167969 74.011719 273.941406 Z M 80.203125 281.140625 C 88.066406 283.753906 95.835938 286.5 103.890625 288.328125 C 105.6875 288.738281 107.457031 289.402344 109.269531 289.550781 C 115.542969 290.0625 118.722656 293.984375 120.847656 299.367188 C 121.382812 300.71875 121.515625 301.945312 120.148438 302.269531 C 116.617188 303.101562 115.492188 309.601562 111.671875 307.464844 C 99.652344 300.738281 89.261719 291.78125 80.203125 281.140625 Z M 112.976562 314.679688 C 102.046875 308.234375 93.09375 299.984375 85.019531 290.226562 C 86.429688 289.960938 86.878906 290.910156 87.449219 291.433594 C 94.542969 297.953125 102.132812 303.832031 110.390625 308.800781 C 112.621094 310.140625 113.4375 311.800781 112.976562 314.679688 Z M 114.703125 311.125 C 123.234375 317.433594 133.484375 318.6875 140.96875 325.710938 C 133.007812 326.558594 116.378906 317.8125 114.703125 311.125 Z M 141.652344 323.898438 C 148.664062 325.726562 154.808594 327.328125 160.949219 328.929688 C 154.472656 328.652344 147.683594 329.570312 141.652344 323.898438 Z M 144.035156 322.734375 C 133.636719 319.984375 129.941406 311.140625 124.832031 303.445312 C 124.53125 302.988281 124.328125 302.46875 124.726562 302.003906 C 125.242188 301.410156 125.894531 301.488281 126.511719 301.859375 C 126.851562 302.0625 127.171875 302.300781 127.472656 302.554688 C 140.945312 313.851562 155.980469 322.398438 172.601562 328.378906 C 162.789062 327.839844 153.453125 325.222656 144.035156 322.734375 Z M 168.476562 324.6875 C 154.449219 319.585938 141.824219 312.039062 130.195312 302.734375 C 127.878906 300.882812 128.257812 300.054688 130.792969 299.363281 C 138.132812 297.355469 145.339844 294.554688 153.21875 295.902344 C 154.414062 296.109375 155.570312 296.054688 156.25 297.296875 C 162.375 308.496094 170.058594 318.46875 179.652344 326.9375 C 179.796875 327.066406 179.742188 327.425781 179.816406 327.910156 C 175.757812 327.617188 172.136719 326.019531 168.476562 324.6875 Z M 185.980469 328.449219 C 184.164062 328.238281 181.964844 327.121094 181.609375 325.050781 C 180.132812 316.472656 179.808594 307.769531 179.148438 299.101562 C 179.027344 297.484375 179.960938 297.089844 181.371094 297.152344 C 182.691406 297.210938 184.011719 297.164062 185.332031 297.164062 C 191.089844 297.488281 191.09375 297.488281 190.558594 303.492188 C 189.90625 310.832031 189.027344 318.144531 187.472656 325.355469 C 187.230469 326.488281 187.820312 328.664062 185.980469 328.449219 Z M 188.890625 335.734375 C 188.179688 335.742188 186.851562 336.339844 186.96875 334.6875 C 187.0625 333.339844 187.878906 332.914062 189.132812 333.148438 C 190.527344 333.40625 191.871094 333.785156 193.402344 334.976562 C 191.722656 336.03125 190.261719 335.714844 188.890625 335.734375 Z M 227.152344 297.296875 C 228.328125 295.675781 229.59375 295.058594 231.402344 296.289062 C 231.714844 296.5 232.148438 296.539062 232.53125 296.632812 C 240.164062 298.4375 240.007812 298.375 237.09375 305.464844 C 234.332031 312.195312 230.28125 317.167969 223.085938 319.773438 C 214.355469 322.933594 205.789062 326.464844 196.46875 327.582031 C 208.800781 319.414062 218.652344 309.039062 227.152344 297.296875 Z M 202.699219 329.257812 C 211.167969 326.378906 219.589844 323.394531 227.859375 319.964844 C 222.046875 330.390625 211.542969 327.449219 202.699219 329.257812 Z M 227.207031 327.542969 C 236.714844 324.648438 246.070312 321.324219 255.289062 317.609375 C 246.957031 323.855469 237.296875 326.304688 227.207031 327.542969 Z M 257.101562 314.285156 C 247.523438 318.960938 237.675781 322.832031 226.9375 325.429688 C 230.445312 319.515625 234.75 315.386719 240.484375 312.527344 C 244.332031 310.609375 247.738281 307.8125 251.332031 305.394531 C 253.792969 303.734375 256.851562 305.089844 258.996094 308.726562 C 260.550781 311.363281 259.863281 312.9375 257.101562 314.285156 Z M 270.601562 306.367188 C 269.398438 307.175781 268.109375 307.867188 266.953125 308.738281 C 264.023438 310.949219 261.628906 311.960938 259.765625 307.359375 C 259.046875 305.582031 256.910156 304.375 255.523438 303.011719 C 264.667969 292.855469 275.101562 285.101562 288.960938 283.886719 C 287.347656 289.058594 276.660156 302.292969 270.601562 306.367188 Z M 283.464844 296.046875 C 289.023438 289.671875 290.964844 279.765625 301.097656 278.125 C 299.804688 281.554688 289.667969 292.222656 283.464844 296.046875 Z M 310.203125 266.988281 C 306.734375 272.90625 301.199219 275.867188 295.144531 278.339844 C 298.933594 269.863281 302.257812 261.429688 304.597656 252.636719 C 305.03125 251.015625 305.578125 251.140625 306.734375 251.875 C 312.113281 255.289062 313.402344 261.535156 310.203125 266.988281 Z M 307.226562 250.136719 C 306.019531 249.179688 305.859375 248.273438 306.097656 246.769531 C 307.832031 235.765625 310.042969 224.878906 313.652344 214.3125 C 314.0625 213.109375 314.484375 211.992188 315.882812 211.324219 C 321.730469 208.542969 327.003906 204.917969 331.988281 198.992188 C 330.417969 221.324219 325.027344 241.226562 314.121094 260.488281 C 312.746094 255.675781 310.351562 252.609375 307.226562 250.136719 Z M 307.226562 250.136719 " fill-opacity="1" fill-rule="nonzero"/></g></svg>