<svg xmlns="http://www.w3.org/2000/svg" xmlns:xlink="http://www.w3.org/1999/xlink" width="500" zoomAndPan="magnify" viewBox="0 0 375 374.999991" height="500" preserveAspectRatio="xMidYMid meet" version="1.0"><defs><clipPath id="8116b647d0"><path d="M 83 81 L 306 81 L 306 271 L 83 271 Z M 83 81 " clip-rule="nonzero"/></clipPath><clipPath id="d49c135fc3"><path d="M 125.125 69.679688 L 337.605469 116.140625 L 296.269531 305.175781 L 83.789062 258.710938 Z M 125.125 69.679688 " clip-rule="nonzero"/></clipPath><clipPath id="26a9baa201"><path d="M 125.125 69.679688 L 337.605469 116.140625 L 296.269531 305.175781 L 83.789062 258.710938 Z M 125.125 69.679688 " clip-rule="nonzero"/></clipPath><clipPath id="baf6ed427c"><path d="M 125.125 69.679688 L 337.605469 116.140625 L 296.269531 305.175781 L 83.789062 258.710938 Z M 125.125 69.679688 " clip-rule="nonzero"/></clipPath></defs><g clip-path="url(#8116b647d0)"><g clip-path="url(#d49c135fc3)"><g clip-path="url(#26a9baa201)"><g clip-path="url(#baf6ed427c)"><path fill="#8f0000" d="M 173.214844 82.410156 L 176.445312 81.320312 L 177.335938 82.710938 C 177.933594 83.640625 178.507812 90.140625 179.058594 102.214844 C 179.609375 114.289062 181.617188 126.082031 185.085938 137.597656 C 188.550781 149.113281 191.046875 155.039062 192.570312 155.371094 L 194.855469 155.871094 L 200.671875 151.167969 C 204.550781 148.03125 208.195312 145.042969 211.609375 142.203125 C 215.023438 139.363281 218.207031 136.671875 221.15625 134.128906 C 224.105469 131.589844 226.277344 129.871094 227.667969 128.980469 L 229.753906 127.644531 L 235.71875 127.753906 C 239.691406 127.824219 246.800781 129.976562 257.046875 134.210938 L 272.417969 140.558594 L 269.207031 147.027344 C 267.066406 151.34375 263.59375 155.363281 258.789062 159.09375 C 253.980469 162.824219 250.105469 165.960938 247.15625 168.503906 C 244.203125 171.046875 239.863281 174.480469 234.128906 178.804688 C 228.394531 183.128906 224.054688 186.5625 221.105469 189.105469 C 218.152344 191.648438 216.429688 194.058594 215.929688 196.339844 L 215.183594 199.761719 L 221.234375 207.660156 C 225.269531 212.925781 231.742188 218.921875 240.644531 225.652344 C 249.546875 232.378906 262.636719 240.023438 279.917969 248.582031 L 305.835938 261.421875 L 291.773438 265.519531 C 282.398438 268.25 275.261719 269.878906 270.359375 270.398438 C 265.457031 270.921875 258.898438 269.886719 250.6875 267.292969 C 242.476562 264.699219 232.992188 260.636719 222.234375 255.09375 C 211.476562 249.554688 204.0625 245.144531 199.992188 241.863281 C 195.921875 238.582031 191.933594 234.921875 188.027344 230.878906 C 184.125 226.839844 181.03125 224.570312 178.746094 224.070312 L 175.320312 223.320312 L 158.867188 232.871094 C 147.898438 239.238281 139.796875 243.441406 134.5625 245.484375 C 129.328125 247.527344 124.472656 249.65625 120 251.863281 C 115.527344 254.074219 109.53125 255.949219 102.011719 257.492188 C 94.492188 259.035156 89.589844 259.558594 87.304688 259.058594 L 83.878906 258.308594 L 86.214844 255.832031 C 87.773438 254.179688 90.574219 251.40625 94.617188 247.511719 C 98.664062 243.613281 102.625 240.097656 106.5 236.960938 C 110.378906 233.824219 114.886719 229.628906 120.027344 224.378906 C 125.164062 219.125 130.136719 214.636719 134.941406 210.90625 C 139.746094 207.175781 144.171875 203.359375 148.214844 199.464844 L 154.28125 193.617188 L 154.136719 188.804688 C 154.042969 185.597656 153.183594 182.222656 151.566406 178.679688 C 149.945312 175.136719 147.335938 166.996094 143.738281 154.257812 C 140.140625 141.515625 137.648438 131.011719 136.265625 122.738281 C 134.882812 114.46875 134.441406 109.191406 134.941406 106.910156 L 135.6875 103.488281 L 152.835938 93.492188 C 164.269531 86.828125 171.0625 83.132812 173.214844 82.410156 Z M 173.214844 82.410156 " fill-opacity="1" fill-rule="evenodd"/></g></g></g></g></svg>